<?xml version="1.0" encoding="utf-8"?>
<!-- Generator: Adobe Illustrator 26.0.0, SVG Export Plug-In . SVG Version: 6.00 Build 0)  -->
<svg version="1.1" id="Layer_2" xmlns="http://www.w3.org/2000/svg" xmlns:xlink="http://www.w3.org/1999/xlink" x="0px" y="0px"
	 viewBox="0 0 1494.29 1160.96" style="enable-background:new 0 0 1494.29 1160.96;" xml:space="preserve">
<style type="text/css">
	.st0{fill:#A4A6C0;}
	.st1{fill:#E0E0E0;}
	.st2{fill:#D0D2E3;}
	.st3{fill:#E4E6F1;}
	.st4{fill:#BCBFCE;}
	.st5{fill:#FFFFFF;}
	.st6{fill:#231F20;}
	.st7{fill:#F9CF5A;}
	.st8{fill:#8AC5FF;}
	.st9{fill:#F2F2F2;}
	.st10{fill:#FFEDC0;}
	.st11{fill:#0075FF;}
	.st12{fill:#1D53BB;}
	.st13{fill:#133578;}
	.st14{fill:#FFDF97;}
	.st15{fill:#FFC697;}
	.st16{fill:#F2A266;}
	.st17{fill:#D3A637;}
	.st18{fill:#1B4C9B;}
	.st19{fill:#CE844D;}
	.st20{fill:#93552B;}
	.st21{fill:none;stroke:#231F20;stroke-miterlimit:10;}
	.st22{fill:#7FC9A2;}
	.st23{fill:#EDEFF9;}
	.st24{fill:#FCE2A2;}
	.st25{fill:#EAEBF1;}
	.st26{opacity:0.77;fill:#E4E6F1;}
	.st27{opacity:0.72;fill:#FFFFFF;}
	.st28{fill:#BDE1FF;}
	.st29{fill:#6FA9D8;}
	.st30{fill:url(#SVGID_1_);}
	.st31{fill:url(#SVGID_00000139979585452288032500000013038011849531003816_);}
	.st32{fill:url(#SVGID_00000123435341140349011300000002234524708644812964_);}
	.st33{fill:url(#SVGID_00000182518710401466154450000013979393534414974387_);}
	.st34{fill:url(#SVGID_00000042002717086232341920000015056039520821022877_);}
	.st35{fill:#F2F3F9;}
	.st36{fill:url(#SVGID_00000070099647298055267050000016140159494016138935_);}
	.st37{fill:#0F2C59;}
	.st38{fill:url(#SVGID_00000022550536886522201950000016054275341759521668_);}
	.st39{fill:url(#SVGID_00000065058011305540101540000018096560366417286323_);}
	.st40{fill:url(#SVGID_00000098206160436144355660000013315880605161612983_);}
	.st41{fill:url(#SVGID_00000172431612873868408870000009400989095511788969_);}
	.st42{fill:url(#SVGID_00000165944093337901301630000000239170144046630550_);}
	.st43{fill:url(#SVGID_00000091695795795635894830000005866020978406446990_);}
	.st44{fill:url(#SVGID_00000074433655264272139290000010584258900124674449_);}
</style>
<g>
	<g>
		<rect x="282.72" y="1009.95" class="st0" width="258.19" height="44.94"/>
		<rect x="595.25" y="1045.04" class="st3" width="468.23" height="24.65"/>
		<path class="st25" d="M495.97,870.68c-0.05,0-0.11,0-0.16-0.01c-0.55-0.09-0.92-0.6-0.83-1.15l13.15-81.99
			c0.08-0.5,0.52-0.88,1.03-0.84c0.51,0.02,0.92,0.42,0.96,0.92l6.11,80.41c0.04,0.55-0.37,1.03-0.92,1.07
			c-0.56,0.04-1.03-0.37-1.07-0.92l-5.47-71.96l-11.8,73.62C496.87,870.33,496.45,870.68,495.97,870.68z"/>
		<rect x="577.14" y="986.11" class="st3" width="489.32" height="10.32"/>
		<rect x="69.47" y="986.11" class="st3" width="490.47" height="10.32"/>
		<path class="st7" d="M1373.39,893.55c0,0-3.81,47.46-3.81,52.05s-17.43,10.39-21.4,11.31c-3.97,0.92-26.9-10.7-26.9-10.7
			l10.59-68.33L1373.39,893.55z"/>
		<path class="st17" d="M1330.89,900.11c11.79,2.55,23.57,17.31,23.57,17.31l-0.92-23.49l19.19,7.79l0.65-8.17l-41.52-15.67
			L1330.89,900.11z"/>
		<path class="st8" d="M577.37,518.56H106.39c-5.19,0-9.4,4.21-9.4,9.4v183.67c0,5.19,4.21,9.4,9.4,9.4h470.98
			c5.19,0,9.4-4.21,9.4-9.4V527.96C586.77,522.77,582.56,518.56,577.37,518.56z"/>
		<rect x="168.53" y="347.74" class="st2" width="1118.98" height="30.27"/>
		<path class="st11" d="M1251.48,408.58l-28.52,30.92l-0.26-0.18c-0.82-0.56-3.41-2.33-6.6-4.72l-0.13-0.1
			c-8.23-6.14-20.16-16.06-15.1-18.59c7.27-3.62,47.95-7.1,50.48-7.31C1251.4,408.59,1251.43,408.58,1251.48,408.58z"/>
		<path class="st13" d="M1251.48,408.58l-28.52,30.92l-0.26-0.18l-6.6-4.72l-0.13-0.1c0,0,8.96-21.78,35.38-25.91
			C1251.4,408.59,1251.43,408.58,1251.48,408.58z"/>
		<path class="st3" d="M146.51,131.25l67.87,216.49h1027.26l67.87-216.49H146.51z M268.53,323.95h-30.65l-48.1-163.12h33.66
			L268.53,323.95z M327.88,323.95h-30.65l-42.28-163.12h33.66L327.88,323.95z M387.24,323.95h-30.65l-36.45-163.12h33.66
			L387.24,323.95z M446.59,323.95h-30.65l-30.63-163.12h33.66L446.59,323.95z M505.94,323.95h-30.65l-24.8-163.12h33.66
			L505.94,323.95z M565.29,323.95h-30.65l-18.98-163.12h33.66L565.29,323.95z M624.64,323.95h-30.65l-13.15-163.12h33.66
			L624.64,323.95z M683.99,323.95h-30.65l-7.33-163.12h33.66L683.99,323.95z M743.35,323.95H712.7l-1.5-163.12h33.66L743.35,323.95z
			 M802.7,323.95h-30.65l4.32-163.12h33.66L802.7,323.95z M862.05,323.95H831.4l10.15-163.12h33.66L862.05,323.95z M921.4,323.95
			h-30.65l15.97-163.12h33.66L921.4,323.95z M980.74,323.95H950.1l21.8-163.12h33.66L980.74,323.95z M1040.09,323.95h-30.65
			l27.62-163.12h33.66L1040.09,323.95z M1099.45,323.95h-30.65l33.45-163.12h33.66L1099.45,323.95z M1158.8,323.95h-30.65
			l39.27-163.12h33.66L1158.8,323.95z M1218.15,323.95h-30.65l45.1-163.12h33.66L1218.15,323.95z"/>
		<polygon class="st13" points="990.34,300.96 895.86,206.95 839.42,195.02 839.24,197.91 893.57,210.85 980.25,304.4 		"/>
		<path class="st15" d="M1304.57,470.56l-12.36,43.8l-9.35,29.19l-49.42,1.88l9.73-34.07c0,0-8.46,1.32-17.6,1.75
			c-9.7,0.44-20.15-0.13-22.07-4.36c-1.6-3.54,1.75-16.78,6.11-30.77c5.8-18.59,13.35-38.48,13.35-38.48L1304.57,470.56z"/>
		<path class="st13" d="M1222.97,439.49l4.87,31.82c0,0,7.86-6.36,14.6-2.62c6.74,3.74-9.73,28.82-9.73,28.82l10.48,13.85
			l49.04,2.99c0,0,19.09-13.1,23.21-24.33c4.12-11.23,5.99-33.69,5.99-33.69L1222.97,439.49z"/>
		<path class="st11" d="M1317.52,482.71c13.26-14.4,26.73-48.46-3.59-72.42s-68.5-0.75-80.48,10.86
			c-11.98,11.6-10.48,18.34-10.48,18.34s23.96,29.95,34.07,34.07C1267.14,477.67,1317.52,482.71,1317.52,482.71z"/>
		<path class="st11" d="M1342.01,393.82c0,3.87-2.45,7.18-5.88,8.44c-0.96,0.36-2.01,0.55-3.1,0.55c-4.96,0-8.99-4.03-8.99-9
			c0-2.56,1.08-4.86,2.79-6.5c1.62-1.53,3.8-2.48,6.2-2.48C1337.99,384.84,1342.01,388.85,1342.01,393.82z"/>
		<path class="st12" d="M1225.57,513.11c-9.7,0.44-20.15-0.13-22.07-4.36c-1.6-3.54,1.75-16.78,6.11-30.77
			c10.12-2.04,12.73,1.19,13.31,6.19C1223.47,489.16,1225.57,513.11,1225.57,513.11z"/>
		<path class="st7" d="M1015.56,331.52c-0.54,1.45-0.88,2.31-0.88,2.31l-46.41,19.88c0,0,0.52-8.66,1.36-19.37
			c1.3-16.29,3.37-37.31,5.58-39.8c3.67-4.12,17.88-9.63,23.84-8.71c5.97,0.92,11.93,11.47,14.68,11.47s7.34,0,10.55,1.83
			C1026.96,300.66,1018.4,324.01,1015.56,331.52z"/>
		<path class="st17" d="M1015.56,331.52c-0.54,1.45-0.88,2.31-0.88,2.31l-46.41,19.88c0,0,0.52-8.66,1.36-19.37
			C981.52,331.43,999.99,328.26,1015.56,331.52z"/>
		<path class="st13" d="M1433.34,1145.86c-1.1,0-1.99-0.88-2-1.98c-1.68-205.17-95.4-247.66-194.62-292.64
			c-114.47-51.9-232.84-105.56-202.52-423.9c0.1-1.1,1.08-1.9,2.18-1.8c1.1,0.1,1.91,1.08,1.8,2.18
			c-13.48,141.58,1.58,242.65,46.04,308.99c39.46,58.89,97.77,85.32,154.15,110.88c48.11,21.81,97.86,44.37,134.65,86.96
			c19.81,22.94,34.43,49.71,44.68,81.84c11.46,35.92,17.23,77.61,17.64,127.46c0.01,1.1-0.88,2.01-1.98,2.02
			C1433.35,1145.86,1433.35,1145.86,1433.34,1145.86z"/>
		<path class="st12" d="M1321.27,1033.11l-5.33,126.35h-280.67l22.02-117.4c0,0,103.64,17.43,140.33,17.43
			C1229.81,1059.49,1303.63,1038.31,1321.27,1033.11z"/>
		<path class="st13" d="M1057.29,1042.06c0,0,124.51,23.85,134.82,24.53c10.32,0.69,129.16-9.23,129.16-9.23l0-24.26
			L1057.29,1042.06z"/>
		<polygon class="st13" points="1192.12,1159.46 1205.19,1084.48 1205.19,1159.46 		"/>
		<path class="st5" d="M484.73,544.02H132.07c-5.19,0-9.4,4.21-9.4,9.4v132.76c0,5.19,4.21,9.4,9.4,9.4h352.66
			c5.19,0,9.4-4.21,9.4-9.4V553.42C494.13,548.23,489.92,544.02,484.73,544.02z"/>
		<path class="st5" d="M559.55,581.32c0,5.63-2.3,10.72-6.02,14.37c-2.94,2.91-6.77,4.91-11.05,5.58c-1.01,0.15-2.05,0.23-3.1,0.23
			c-11.15,0-20.18-9.03-20.18-20.18c0-5.48,2.19-10.46,5.73-14.09c2.89-2.96,6.69-5.04,10.95-5.78c1.14-0.21,2.31-0.31,3.5-0.31
			C550.52,561.14,559.55,570.18,559.55,581.32z"/>
		<path class="st5" d="M559.55,651.64c0,11.14-9.03,20.18-20.17,20.18c-0.11,0-0.21,0-0.32-0.01c-4.39-0.06-8.44-1.53-11.72-3.97
			c-4.94-3.68-8.14-9.57-8.14-16.2c0-11.14,9.03-20.18,20.18-20.18c0.1,0,0.21,0,0.31,0.01c4.39,0.06,8.44,1.53,11.72,3.97
			C556.35,639.12,559.55,645.01,559.55,651.64z"/>
		<path class="st25" d="M553.53,595.69c-2.94,2.91-6.77,4.91-11.05,5.58l-17.55-34.04c2.89-2.96,6.69-5.04,10.95-5.78L553.53,595.69
			z"/>
		<path class="st25" d="M551.42,635.44l-12.35,36.37c-4.39-0.06-8.44-1.53-11.72-3.97l12.35-36.37
			C544.08,631.53,548.13,633,551.42,635.44z"/>
		<g>
			<g>
				<path class="st1" d="M719.42,1020.73c0,5.97-4.84,10.82-10.81,10.82c-0.06,0-0.11,0-0.17-0.01c-2.35-0.03-4.52-0.82-6.28-2.13
					c-2.65-1.97-4.36-5.13-4.36-8.68c0-5.97,4.84-10.82,10.82-10.82c0.05,0,0.11,0,0.17,0.01c2.35,0.03,4.52,0.82,6.28,2.13
					C717.71,1014.02,719.42,1017.18,719.42,1020.73z"/>
				<path class="st9" d="M715.06,1012.05l-6.62,19.49c-2.35-0.03-4.52-0.82-6.28-2.13l6.62-19.49
					C711.13,1009.95,713.3,1010.74,715.06,1012.05z"/>
			</g>
			<g>
				<path class="st1" d="M754.53,1027.55c-3.76,4.64-10.57,5.35-15.21,1.59c-0.05-0.04-0.09-0.07-0.13-0.11
					c-1.81-1.51-3-3.49-3.54-5.61c-0.81-3.2-0.16-6.73,2.08-9.49c3.76-4.64,10.57-5.35,15.21-1.58c0.04,0.03,0.09,0.07,0.13,0.11
					c1.81,1.51,3,3.49,3.54,5.61C757.42,1021.25,756.76,1024.79,754.53,1027.55z"/>
				<path class="st9" d="M756.61,1018.05l-17.42,10.97c-1.81-1.51-3-3.49-3.54-5.61l17.42-10.97
					C754.88,1013.95,756.07,1015.93,756.61,1018.05z"/>
			</g>
			<g>
				<path class="st1" d="M837.68,1010.58c5.6,2.06,8.48,8.28,6.42,13.88c-0.02,0.06-0.04,0.11-0.06,0.16
					c-0.84,2.2-2.33,3.96-4.17,5.16c-2.77,1.8-6.32,2.32-9.65,1.1c-5.6-2.06-8.48-8.28-6.42-13.88c0.02-0.05,0.04-0.11,0.06-0.15
					c0.84-2.2,2.33-3.96,4.17-5.16C830.79,1009.88,834.35,1009.36,837.68,1010.58z"/>
				<path class="st9" d="M828.03,1011.68l16.01,12.94c-0.84,2.2-2.33,3.96-4.17,5.16l-16.01-12.94
					C824.71,1014.64,826.2,1012.88,828.03,1011.68z"/>
			</g>
			<g>
				<path class="st1" d="M881.41,1016.48c2.35,5.49-0.2,11.85-5.69,14.19c-0.05,0.02-0.1,0.04-0.16,0.06
					c-2.18,0.89-4.48,1.02-6.61,0.51c-3.21-0.77-6.03-3-7.42-6.27c-2.35-5.49,0.2-11.85,5.7-14.19c0.05-0.02,0.1-0.04,0.15-0.06
					c2.18-0.89,4.48-1.02,6.61-0.51C877.2,1010.99,880.02,1013.22,881.41,1016.48z"/>
				<path class="st9" d="M873.99,1010.21l1.57,20.53c-2.18,0.89-4.48,1.02-6.61,0.51l-1.57-20.53
					C869.56,1009.83,871.86,1009.7,873.99,1010.21z"/>
			</g>
		</g>
		<path class="st5" d="M314.66,1021.48c6.05,3.45,8.15,11.16,4.7,17.2c-0.03,0.06-0.07,0.11-0.1,0.17
			c-1.39,2.36-3.45,4.11-5.79,5.13c-3.53,1.54-7.72,1.45-11.32-0.61c-6.05-3.45-8.15-11.16-4.69-17.21c0.03-0.05,0.07-0.11,0.1-0.17
			c1.39-2.36,3.45-4.11,5.79-5.13C306.87,1019.33,311.06,1019.42,314.66,1021.48z"/>
		<path class="st3" d="M303.34,1020.87l15.91,17.98c-1.39,2.36-3.45,4.11-5.79,5.13L297.55,1026
			C298.95,1023.64,301,1021.89,303.34,1020.87z"/>
		<path class="st0" d="M470.59,564.8h-67.56c-1.6,0-2.91,1.3-2.91,2.91v17.89c0,1.6,1.3,2.91,2.91,2.91h67.56
			c1.6,0,2.91-1.3,2.91-2.91v-17.89C473.49,566.11,472.19,564.8,470.59,564.8z"/>
		<path class="st3" d="M279.03,518.56l7-12.57c2.41-4.34-0.72-9.67-5.68-9.67H160.79c-4.96,0-8.1,5.33-5.68,9.67l7,12.57H279.03z"/>
		<path class="st3" d="M374.63,518.56l4.34-7.65c1.5-2.64-0.45-5.88-3.52-5.88h-74.15c-3.08,0-5.02,3.24-3.52,5.88l4.34,7.65H374.63
			z"/>
		<path class="st1" d="M255.66,612.01h-98.14c-0.83,0-1.5-0.67-1.5-1.5s0.67-1.5,1.5-1.5h98.14c0.83,0,1.5,0.67,1.5,1.5
			S256.49,612.01,255.66,612.01z"/>
		<path class="st1" d="M456.07,647.33H157.52c-0.83,0-1.5-0.67-1.5-1.5s0.67-1.5,1.5-1.5h298.55c0.83,0,1.5,0.67,1.5,1.5
			S456.9,647.33,456.07,647.33z"/>
		<rect x="78.64" y="721.04" class="st3" width="532.89" height="20.18"/>
		<rect x="556.5" y="741.22" class="st3" width="23.39" height="220.13"/>
		<rect x="107.3" y="741.22" class="st3" width="23.39" height="220.13"/>
		<path class="st25" d="M1016.63,962.84H90.56c-0.83,0-1.5-0.67-1.5-1.5s0.67-1.5,1.5-1.5h926.06c0.83,0,1.5,0.67,1.5,1.5
			S1017.46,962.84,1016.63,962.84z"/>
		<path class="st25" d="M1066.46,987.61H69.47c-0.83,0-1.5-0.67-1.5-1.5s0.67-1.5,1.5-1.5h996.99c0.83,0,1.5,0.67,1.5,1.5
			S1067.29,987.61,1066.46,987.61z"/>
		<path class="st25" d="M407.3,955.81c-0.83,0-1.5-0.67-1.5-1.5v-53.5c0-12.15-9.89-22.04-22.04-22.04H219.28
			c-12.15,0-22.04,9.89-22.04,22.04v53.5c0,0.83-0.67,1.5-1.5,1.5s-1.5-0.67-1.5-1.5v-53.5c0-13.81,11.23-25.04,25.04-25.04h164.48
			c13.81,0,25.04,11.23,25.04,25.04v53.5C408.8,955.14,408.13,955.81,407.3,955.81z"/>
		<path class="st25" d="M234.56,955.81c-0.83,0-1.5-0.67-1.5-1.5v-67.57c0-0.83,0.67-1.5,1.5-1.5s1.5,0.67,1.5,1.5v67.57
			C236.06,955.14,235.39,955.81,234.56,955.81z"/>
		<path class="st25" d="M273.7,955.81c-0.83,0-1.5-0.67-1.5-1.5v-67.57c0-0.83,0.67-1.5,1.5-1.5s1.5,0.67,1.5,1.5v67.57
			C275.2,955.14,274.53,955.81,273.7,955.81z"/>
		<path class="st25" d="M315.28,955.81c-0.83,0-1.5-0.67-1.5-1.5v-67.57c0-0.83,0.67-1.5,1.5-1.5s1.5,0.67,1.5,1.5v67.57
			C316.78,955.14,316.11,955.81,315.28,955.81z"/>
		<path class="st25" d="M357.47,955.81c-0.83,0-1.5-0.67-1.5-1.5v-67.57c0-0.83,0.67-1.5,1.5-1.5s1.5,0.67,1.5,1.5v67.57
			C358.97,955.14,358.3,955.81,357.47,955.81z"/>
		<rect x="191.69" y="775.61" class="st3" width="219.67" height="32.56"/>
		<g>
			<circle class="st0" cx="230.61" cy="791.89" r="5.9"/>
			<circle class="st0" cx="277.88" cy="791.89" r="5.9"/>
			<circle class="st0" cx="325.16" cy="791.89" r="5.9"/>
			<circle class="st0" cx="372.43" cy="791.89" r="5.9"/>
		</g>
		<path class="st8" d="M490.16,878.95c-0.46-0.31,32.41,0,32.41,0l-3.21,24.15h-22.62L490.16,878.95z"/>
		<path class="st22" d="M495.35,878.82c0,0-11.77-8.89-6.57-14.54s14.22-1.22,14.22-1.22s10.55-3.38,17.27-2.46
			c6.73,0.92-1.22,18.33-1.22,18.33L495.35,878.82z"/>
		<circle class="st0" cx="508.88" cy="789.75" r="3.29"/>
		<path class="st25" d="M610.16,849.53c-0.04,0-0.08,0-0.11-0.01c-0.55-0.06-0.94-0.56-0.88-1.11l9.63-84.38
			c0.06-0.49,0.46-0.87,0.96-0.89c0.01,0,0.02,0,0.03,0c0.48,0,0.9,0.34,0.98,0.82l14.67,80.58c0.1,0.54-0.26,1.06-0.8,1.16
			c-0.54,0.11-1.06-0.26-1.16-0.8l-13.46-73.93l-8.87,77.67C611.09,849.15,610.66,849.53,610.16,849.53z"/>
		<circle class="st0" cx="619.96" cy="765.75" r="2.95"/>
		<path class="st25" d="M758.28,845.72c-0.55,0-1-0.45-1-1v-353.9c0-0.55,0.45-1,1-1s1,0.45,1,1v353.9
			C759.28,845.28,758.84,845.72,758.28,845.72z"/>
		<path class="st25" d="M973.83,788.69c-0.55,0-1-0.45-1-1V499.87c0-0.55,0.45-1,1-1s1,0.45,1,1v287.82
			C974.83,788.24,974.38,788.69,973.83,788.69z"/>
		<path class="st25" d="M990.34,646.83H634.46c-0.55,0-1-0.45-1-1s0.45-1,1-1h355.87c0.55,0,1,0.45,1,1S990.89,646.83,990.34,646.83
			z"/>
		<path class="st0" d="M679.63,961.34v-22.82c0-5.64,4.97-10.2,11.1-10.2h198.61c6.13,0,11.1,4.57,11.1,10.2v22.82H679.63z"/>
		<rect x="282.72" y="1084.48" class="st3" width="258.19" height="74.98"/>
		<polyline class="st8" points="679.63,1159.46 679.63,1084.48 900.45,1084.48 900.45,1159.46 		"/>
		<rect x="340.35" y="1022.95" class="st5" width="99.06" height="18.96"/>
		<rect x="347.84" y="1027.99" class="st0" width="57.02" height="8.87"/>
		<path class="st5" d="M492.1,1039.74c-1.58,0-5.15-0.73-7.41-6.8c-1.2-3.23-1.86-4.35-2.21-4.68c-1.17,0.73-3.79,5.86-4.68,7.59
			c-0.38,0.74-1.28,1.03-2.02,0.65c-0.74-0.38-1.03-1.28-0.65-2.02c3.4-6.65,5.22-9.42,7.54-9.28c2.23,0.13,3.41,2.85,4.83,6.69
			c1.14,3.08,2.91,4.94,4.65,4.84c1.5-0.04,2.84-1.43,3.52-3.61c0.02-0.06,0.04-0.12,0.05-0.18c-1.96-1.59-3.67-3.61-4.23-4.73
			c-0.57-1.14-0.3-1.9,0.03-2.33c0.21-0.27,0.81-0.87,1.97-0.65l0.21,0.04c1.54,0.29,3.65,0.68,4.76,2.53
			c0.61,1.02,0.82,2.3,0.61,3.89c0.59,0.37,1.11,0.6,1.48,0.6c2.88,0,19.2-1.36,19.37-1.37c0.83-0.05,1.55,0.54,1.62,1.37
			c0.07,0.83-0.54,1.55-1.37,1.62c-0.68,0.06-16.61,1.38-19.62,1.38c-0.68,0-1.44-0.24-2.23-0.63c-1.15,3.07-3.43,4.99-6.07,5.07
			C492.2,1039.74,492.15,1039.74,492.1,1039.74z"/>
		<path class="st25" d="M253.14,1085.98H130.69c-0.83,0-1.5-0.67-1.5-1.5s0.67-1.5,1.5-1.5h120.95v-26.58H72.91
			c-0.83,0-1.5-0.67-1.5-1.5s0.67-1.5,1.5-1.5h180.23c0.83,0,1.5,0.67,1.5,1.5v29.58C254.64,1085.3,253.97,1085.98,253.14,1085.98z"
			/>
		<rect x="230.44" y="1133.32" class="st9" width="12.84" height="26.14"/>
		<rect x="630.73" y="1133.32" class="st3" width="12.84" height="26.14"/>
		<path class="st25" d="M567.97,1160.96c-0.83,0-1.5-0.67-1.5-1.5V996.43c0-0.83,0.67-1.5,1.5-1.5s1.5,0.67,1.5,1.5v163.03
			C569.47,1160.28,568.79,1160.96,567.97,1160.96z"/>
		<path class="st25" d="M657.62,1160.96c-0.83,0-1.5-0.67-1.5-1.5v-74.98c0-0.83,0.67-1.5,1.5-1.5s1.5,0.67,1.5,1.5v74.98
			C659.12,1160.28,658.45,1160.96,657.62,1160.96z"/>
		<path class="st25" d="M924.87,1160.96c-0.83,0-1.5-0.67-1.5-1.5v-74.98c0-0.83,0.67-1.5,1.5-1.5s1.5,0.67,1.5,1.5v74.98
			C926.37,1160.28,925.7,1160.96,924.87,1160.96z"/>
		<rect x="834.56" y="1105.34" class="st5" width="47.85" height="18.04"/>
		<path class="st25" d="M945.85,1160.96c-0.83,0-1.5-0.67-1.5-1.5v-74.98c0-0.83,0.67-1.5,1.5-1.5h75.67c0.83,0,1.5,0.67,1.5,1.5
			s-0.67,1.5-1.5,1.5h-74.17v73.48C947.35,1160.28,946.68,1160.96,945.85,1160.96z"/>
		<path class="st3" d="M1016.63,961.34l-2.33-37.65c-0.66-10.65-6.02-20.45-14.63-26.74c-17.09-12.5-44.45-32.31-46.33-32.52
			c-1.31-0.15-7.35,4.23-13.31,8.84c-6.27,4.86-5.52,14.55,1.43,18.39l7.08,3.92c5.47,3.03,12.35,0.92,15.19-4.65l0.18-0.36
			c1.18-2.32,4.17-3,6.25-1.44l16.76,12.64c9.24,6.97,14.55,17.97,14.26,29.55l-0.76,30.02H1016.63z"/>
		<path class="st3" d="M1028.69,935.43l2.81,1.12c2.14,0.85,3.55,2.92,3.55,5.22v7.04c0,2.53-1.69,4.74-4.12,5.41l-2.4,0.66
			c-3.47,0.96-6.94-1.55-7.1-5.15l-0.41-8.82C1020.82,936.84,1024.9,933.93,1028.69,935.43z"/>
		<path class="st11" d="M1410.19,696.28c0,19.72-27.29,200.86-27.29,200.86l-51.03-19.26l-6.75,154.09c0,0-1.37,0.41-3.84,1.14
			c-17.64,5.2-91.47,26.38-123.65,26.38c-36.69,0-140.33-17.43-140.33-17.43l-9.18-6.42c0,0,71.09-423.29,70.63-428.79
			c-0.46-5.5-54.58-89.43-59.62-96.76c-5.04-7.34-102.73-136.67-102.73-138.5c0-1.84,11.01-20.64,24.31-28.89
			c13.3-8.26,42.65-9.63,44.03-9.63c1.37,0,94.93,123.36,110.98,141.43c16.05,18.06,69.7,63.79,69.7,63.79s108.46,7.57,121.41,12.73
			C1339.78,556.18,1410.19,676.56,1410.19,696.28z"/>
		<path class="st12" d="M1205.42,538.29c22.93-16.74,99.82-10.47,106.85-8.64s19.26,29.66,19.57,37.3
			c0.31,7.64-1.22,70.01-36.99,79.8C1259.07,656.53,1205.42,538.29,1205.42,538.29z"/>
		<polygon class="st12" points="1331.87,877.88 1331.87,770.57 1348.96,675.18 1340.41,785.24 1348.96,884.33 		"/>
		<path class="st12" d="M1336.13,402.26c-0.96,0.36-2.01,0.55-3.1,0.55c-4.96,0-8.99-4.03-8.99-9c0-2.56,1.08-4.86,2.79-6.5
			C1326.55,394.55,1331.15,399.27,1336.13,402.26z"/>
		<path class="st12" d="M1217.6,482.98c-0.19,0-0.38-0.07-0.53-0.2c-0.34-0.3-0.38-0.81-0.08-1.15l12.98-14.97
			c0.29-0.34,0.81-0.38,1.15-0.08s0.38,0.81,0.08,1.15l-12.98,14.97C1218.06,482.89,1217.83,482.98,1217.6,482.98z"/>
		<polygon class="st1" points="871.24,209.92 891.97,219.33 899.77,231.78 901.03,218.9 893.57,210.85 871.59,205.61 		"/>
		<polygon class="st1" points="928.41,263.65 954.39,291.83 956.4,278.66 929.98,250.15 		"/>
		<path class="st0" d="M1366.85,132.75H79.1c-0.72,0-1.34-0.51-1.47-1.21L63.87,60.48c-0.16-0.81,0.37-1.6,1.19-1.76
			c0.82-0.16,1.6,0.37,1.76,1.19l13.52,69.84h1286.51c0.83,0,1.5,0.67,1.5,1.5S1367.67,132.75,1366.85,132.75z"/>
		<polygon class="st12" points="1118.74,606.85 1118.97,584.83 1084.63,549.63 		"/>
		<path class="st22" d="M606.17,844.72c0,0-10.32-10.55-9.86-12.61s14.22,0,14.22,0s-1.83-9.4,0-11.01
			c1.83-1.61,12.38,8.94,12.38,8.94s5.96-12.99,8.71-13.61c2.75-0.61,3.67,15.21,3.67,15.21s10.32-6.42,12.61-5.96
			c2.29,0.46-6.65,16.51-6.65,16.51L606.17,844.72z"/>
		<path class="st8" d="M598.91,843.73c10.09-6.42,44.64-5.5,48-2.75c-0.61,7.64-7.95,38.52-7.95,38.52h-27.82L598.91,843.73z"/>
		<path class="st5" d="M1302.18,655.73c-17.87,0-39.67-19.75-64.8-58.7c-18.66-28.93-32.29-58.24-32.42-58.53
			c-0.12-0.25-0.01-0.55,0.24-0.66c0.25-0.12,0.55-0.01,0.66,0.24c0.54,1.17,54.47,116.65,96.31,116.65c0.28,0,0.5,0.22,0.5,0.5
			S1302.46,655.73,1302.18,655.73z"/>
		<path class="st5" d="M1305.16,996.93c-0.02,0-0.04,0-0.06,0c-0.27-0.03-0.47-0.28-0.44-0.55l26.7-225.86l20.28-115.37
			c0.05-0.27,0.31-0.45,0.58-0.41c0.27,0.05,0.45,0.31,0.41,0.58l-20.27,115.34l-26.7,225.83
			C1305.63,996.74,1305.41,996.93,1305.16,996.93z"/>
		<path class="st5" d="M1132.96,1021.23c-0.08,0-0.16-0.02-0.24-0.06c-0.48-0.26-47.79-26.21-60.77-64.05
			c-0.09-0.26,0.05-0.54,0.31-0.63c0.26-0.09,0.54,0.05,0.63,0.31c12.86,37.46,59.83,63.24,60.3,63.49c0.24,0.13,0.33,0.43,0.2,0.68
			C1133.31,1021.14,1133.14,1021.23,1132.96,1021.23z"/>
		<path class="st5" d="M1292.59,468.76c-0.01,0-0.01,0-0.02,0l-26.58-0.75c-0.24-0.01-0.47-0.12-0.62-0.31l-28.45-36.31
			c-0.28-0.36-0.22-0.87,0.14-1.15c0.35-0.28,0.87-0.22,1.15,0.14l28.21,36.01l26.19,0.74c0.45,0.01,0.81,0.39,0.79,0.84
			C1293.4,468.41,1293.03,468.76,1292.59,468.76z"/>
		<path class="st5" d="M977.82,368.72c-0.12,0-0.25-0.05-0.34-0.14c-0.2-0.19-0.21-0.51-0.02-0.71
			c0.21-0.22,21.16-22.18,44.89-26.45c0.28-0.05,0.53,0.13,0.58,0.4c0.05,0.27-0.13,0.53-0.4,0.58
			c-23.41,4.21-44.13,25.93-44.34,26.15C978.09,368.67,977.95,368.72,977.82,368.72z"/>
		<path class="st5" d="M1376.93,878.38c-0.06,0-0.12-0.01-0.18-0.03l-18.8-7.34c-0.26-0.1-0.38-0.39-0.28-0.65s0.39-0.38,0.65-0.28
			l18.8,7.34c0.26,0.1,0.38,0.39,0.28,0.65C1377.32,878.26,1377.13,878.38,1376.93,878.38z"/>
		<path class="st5" d="M895.86,147.79c11.13-0.77,7.03,10.7,0,10.7C888.83,158.49,893.44,147.96,895.86,147.79z"/>
		<path class="st5" d="M826.62,177.83c4.26-4.74,6.65,6.65,3.44,6.65C826.84,184.48,824.55,180.12,826.62,177.83z"/>
		<path class="st5" d="M881.19,234.92c2.29-0.23,2.75,3.18,0,4.57S878.9,235.15,881.19,234.92z"/>
		<path class="st2" d="M703.19,474.97c2.29-0.23,2.75,3.18,0,4.57C700.44,480.93,700.9,475.19,703.19,474.97z"/>
		<path class="st2" d="M742.96,39.9c2.29-0.23,2.75,3.18,0,4.57S740.66,40.13,742.96,39.9z"/>
		<path class="st5" d="M714.91,358.64c2.29-0.23,2.75,3.18,0,4.57C712.16,364.61,712.62,358.87,714.91,358.64z"/>
		<path class="st2" d="M588.66,0.01c2.29-0.23,2.75,3.18,0,4.57S586.37,0.24,588.66,0.01z"/>
		<path class="st5" d="M912.89,356.24c2.29-0.23,2.75,3.18,0,4.57C910.14,362.21,910.6,356.47,912.89,356.24z"/>
		<path class="st5" d="M817.9,234.91c11.8-5.11,5.2,18.05,0,18.35C812.7,253.57,810.87,237.96,817.9,234.91z"/>
		<path class="st0" d="M843.85,17.54c11.8-5.11,5.2,18.05,0,18.35C838.65,36.2,836.82,20.58,843.85,17.54z"/>
		<path class="st5" d="M813.29,199.76c3.82-5.03,7.36,3.44,3.39,5.85C812.7,208.02,811.43,202.21,813.29,199.76z"/>
		<path class="st5" d="M759.36,336.75c3.82-5.03,7.36,3.44,3.39,5.85C758.78,345.01,757.5,339.2,759.36,336.75z"/>
		<path class="st5" d="M636.35,189.1c3.82-5.03,7.36,3.44,3.39,5.85C635.76,197.35,634.49,191.54,636.35,189.1z"/>
		<path class="st2" d="M563.14,382.41c3.82-5.03,7.36,3.44,3.39,5.85C562.55,390.67,561.28,384.86,563.14,382.41z"/>
		<path class="st2" d="M940.26,33.47c3.82-5.03,7.36,3.44,3.39,5.85C939.67,41.72,938.4,35.91,940.26,33.47z"/>
		<path class="st5" d="M779.69,143.81c7.84-0.5,5.81,5.5,2.45,5.5C778.77,149.32,776.51,144.02,779.69,143.81z"/>
		<path class="st5" d="M763.18,199.46c6.9,0,1.23,39.17-8.87,34.72C744.22,229.72,758.9,199.46,763.18,199.46z"/>
		<path class="st5" d="M881.19,291.83c2.91-2.97,7,8.68,1.9,8.68C877.98,300.5,879.35,293.7,881.19,291.83z"/>
		<path class="st5" d="M718.46,145.22c2.91-2.97,7,8.68,1.9,8.68C715.25,153.9,716.63,147.09,718.46,145.22z"/>
		<path class="st5" d="M950.1,176.67c3.27-5.81,7.22,8.72,2.63,10.55S947,182.17,950.1,176.67z"/>
		<path class="st5" d="M885.51,180.57c6.7-3.59,6.68,2.98,3.47,3.9C885.77,185.39,883.38,181.72,885.51,180.57z"/>
		<path class="st5" d="M819.03,348.79c9.66,1.17,6.9,8.61-2.02,9.76C808.08,359.7,815.14,348.32,819.03,348.79z"/>
		<path class="st2" d="M813.43,431.45c9.66,1.17,6.9,8.61-2.02,9.76S809.53,430.97,813.43,431.45z"/>
		<polygon class="st0" points="107.3,60.2 119,111.1 1178.27,111.1 1164.62,60.2 		"/>
		<circle class="st2" cx="651.21" cy="414.5" r="5.2"/>
	</g>
	<path class="st26" d="M603.21,962.84l-62.31,196.61l459.45,1.5c0,0-50.44-232.63-111.01-232.63H690.74
		C658.11,933.52,631.83,950.32,603.21,962.84z"/>
	<path class="st27" d="M888.92,964.2c0,0,55.15,109.15,67.47,177.48c0,0-38.34-60.06-47.14-84.31S888.92,964.2,888.92,964.2z"/>
	<path class="st27" d="M770.63,1029.02L562.4,1146.39c0,0,250.85-5.17,257.27-4.71S770.63,1029.02,770.63,1029.02z"/>
	<path class="st27" d="M679.63,987.61c-8.32,11.67-73.67,65.33-73.67,65.33s46.78-27.06,55.03-35.31
		C669.25,1009.37,679.63,987.61,679.63,987.61z"/>
	<polygon class="st26" points="106.39,518.56 39.14,964.2 579.89,961.34 577.37,518.56 	"/>
	<polygon class="st27" points="505.22,544.02 556.5,944.83 478.21,935.03 	"/>
	<path class="st27" d="M181.3,739.94c48.51,84.04,166.53,130.99,166.53,130.99C290.11,817.94,234.31,773.04,181.3,739.94z"/>
	<polygon class="st26" points="254.64,994.93 176.72,1159.46 540.91,1159.46 536.49,996.43 	"/>
	<path class="st27" d="M243.28,1141.68l30.42-77.73c0,0,4.14,60.32,13.77,69.37L243.28,1141.68z"/>
	<path class="st5" d="M353.51,1065.87l150.41,5.88c0,0-63.25,6.19-78.18,6.19S353.51,1065.87,353.51,1065.87z"/>
	<path class="st26" d="M146.51,131.25c0,0-93.88,27.24-131.22,85.74C-28.44,285.51,26.42,418.38,119,425.53
		c92.57,7.15,408.35-76.75,408.35-76.75C353.1,305.55,210.49,242.75,146.51,131.25z"/>
	<path class="st27" d="M36.39,278.61c54.09,90.68,348.79,71.97,343.1,82.43c0,0-158.17,27.4-223.46,30.84
		C90.73,395.31,36.39,278.61,36.39,278.61z"/>
	<path class="st27" d="M134.07,180.91c14.8,5.86,38.98,30.27,5.5,23.39S112.06,172.2,134.07,180.91z"/>
	<path class="st26" d="M1309.52,131.25c206.31,11.6,308.53,213.09-67.87,216.49c-62.43,0.56-133.06,1.04-133.06,1.04
		s115.11-90.64,150.42-128.89S1309.52,131.25,1309.52,131.25z"/>
	<path class="st27" d="M1426.86,184.12c44.94,44.94,28.89,102.27-46.32,123.82s26.75-24.76,38.98-61.91
		C1431.75,208.89,1426.86,184.12,1426.86,184.12z"/>
	<path class="st27" d="M1279.19,271.26c-8.56,4.89-64.82,24.15-64.82,24.15l73.13-6.11L1279.19,271.26z"/>
</g>
</svg>
