<svg version="1.1" id="Layer_1" xmlns="http://www.w3.org/2000/svg" xmlns:xlink="http://www.w3.org/1999/xlink" x="0px" y="0px"
	 width="100%" viewBox="0 0 256 256" enable-background="new 0 0 256 256" xml:space="preserve">
<path fill="#FEFEFE" opacity="1.000000" stroke="none" 
	d="
M153.000000,257.000000 
	C102.000000,257.000000 51.500008,257.000000 1.000007,257.000000 
	C1.000005,171.666672 1.000005,86.333351 1.000002,1.000018 
	C86.333321,1.000012 171.666641,1.000012 257.000000,1.000006 
	C257.000000,86.333313 257.000000,171.666626 257.000000,256.999969 
	C222.500000,257.000000 188.000000,257.000000 153.000000,257.000000 
M17.242737,48.004780 
	C9.666400,49.511230 7.508284,55.027885 6.771382,61.812420 
	C3.992138,87.400459 5.285047,112.960648 7.271311,138.505493 
	C8.135317,149.617249 12.579449,153.985214 24.907463,156.082672 
	C93.450195,156.105728 161.992935,156.129913 230.535660,156.138519 
	C231.355423,156.138626 232.175217,155.937988 233.771027,155.934677 
	C245.727722,152.741470 249.169144,148.905884 249.880920,137.292389 
	C250.625519,125.143417 251.581848,112.979866 251.600662,100.821381 
	C251.621185,87.561684 250.894333,74.286507 250.062973,61.045101 
	C249.551544,52.899441 246.517303,49.815651 238.089752,47.926609 
	C165.548401,47.907734 93.007050,47.888077 20.465702,47.879757 
	C19.639830,47.879662 18.813940,48.026745 17.242737,48.004780 
M63.371674,199.824310 
	C69.098862,193.205505 69.697182,184.848114 70.821739,176.774826 
	C71.002663,175.475952 68.649574,173.824127 67.467880,172.335449 
	C65.987762,173.744583 63.478813,174.974655 63.197224,176.592407 
	C61.568466,185.949493 59.446434,194.913971 52.557579,202.122971 
	C51.547630,203.179855 52.177101,205.803375 52.048019,207.702011 
	C54.139301,207.443710 56.719585,207.852631 58.203224,206.765244 
	C60.249523,205.265503 61.468102,202.636398 63.371674,199.824310 
M201.074310,208.320648 
	C202.644226,207.754608 204.761551,207.598618 205.597427,206.482712 
	C206.184341,205.699188 205.375488,203.382034 204.577438,202.144806 
	C202.549652,199.001022 199.385818,196.375198 198.124756,193.000870 
	C196.115585,187.624710 195.049820,181.850403 194.042465,176.163452 
	C193.486328,173.023788 191.381897,172.135635 189.196594,172.591736 
	C187.899796,172.862366 186.039581,175.333344 186.148773,176.675400 
	C187.136581,188.816956 190.922226,199.826355 201.074310,208.320648 
M85.995323,204.898972 
	C86.829437,206.296585 87.537811,208.747406 88.524719,208.865234 
	C90.387199,209.087601 93.322838,208.577118 94.186325,207.284744 
	C96.340248,204.060989 98.163521,200.366852 99.060951,196.608719 
	C100.591805,190.198090 101.551056,183.616959 102.185860,177.052856 
	C102.325752,175.606293 100.106964,173.931641 98.974319,172.362015 
	C98.125099,173.728821 96.552872,175.089706 96.541611,176.463379 
	C96.455368,186.983246 93.878349,196.479675 85.995323,204.898972 
M165.763168,197.676468 
	C164.834747,196.206497 163.385345,194.838821 163.072968,193.247894 
	C162.021851,187.894516 161.524368,182.432800 160.486176,177.076294 
	C160.162155,175.404587 158.795761,173.934906 157.906525,172.372742 
	C156.814072,173.956482 154.687180,175.625259 154.809128,177.109177 
	C155.323135,183.362778 156.228851,189.621628 157.555878,195.756424 
	C158.309875,199.242081 159.879913,202.639694 161.583694,205.807373 
	C163.406677,209.196609 167.813965,210.439804 169.865646,208.385147 
	C173.055786,205.190399 169.687454,203.026108 168.268829,200.651718 
	C167.744751,199.774521 166.813644,199.140503 165.763168,197.676468 
M132.017303,178.834412 
	C131.888031,176.100113 132.692627,172.460754 128.413361,172.554550 
	C124.168663,172.647598 125.032768,176.318344 125.009781,179.013458 
	C124.942978,186.843155 124.936050,194.674286 125.014122,202.503769 
	C125.040848,205.183762 124.152557,208.946686 128.376877,208.986542 
	C132.946411,209.029694 131.958466,205.078949 131.989273,202.254639 
	C132.071014,194.758484 132.017136,187.260818 132.017303,178.834412 
z"/>
<path fill="#172843" opacity="1.000000" stroke="none" 
	d="
M23.996351,155.829987 
	C12.579449,153.985214 8.135317,149.617249 7.271311,138.505493 
	C5.285047,112.960648 3.992138,87.400459 6.771382,61.812420 
	C7.508284,55.027885 9.666400,49.511230 17.921562,48.340878 
	C19.582922,48.791695 20.565435,49.006630 21.547997,49.006847 
	C92.630836,49.022648 163.713684,49.026657 234.796494,48.983334 
	C236.203903,48.982475 237.610962,48.410976 239.018173,48.105705 
	C246.517303,49.815651 249.551544,52.899441 250.062973,61.045101 
	C250.894333,74.286507 251.621185,87.561684 251.600662,100.821381 
	C251.581848,112.979866 250.625519,125.143417 249.880920,137.292389 
	C249.169144,148.905884 245.727722,152.741470 233.057205,155.626617 
	C231.360062,155.209534 230.376770,155.005325 229.393433,155.005112 
	C162.351562,154.990021 95.309700,154.986130 28.267859,155.026215 
	C26.843864,155.027054 25.420179,155.550385 23.996351,155.829987 
M213.475052,125.478928 
	C212.173233,125.314026 210.871460,125.005508 209.569565,125.004921 
	C155.574234,124.980766 101.578888,124.974609 47.583611,125.033699 
	C46.064552,125.035355 44.546295,125.770927 42.433132,126.658089 
	C41.486626,127.676712 39.762897,128.664383 39.720901,129.719025 
	C39.465698,136.127167 39.593613,142.550568 39.593613,149.008728 
	C99.166916,149.008728 158.052200,149.008728 217.430008,149.008728 
	C217.430008,143.330185 217.219330,137.870499 217.511703,132.437881 
	C217.678070,129.346970 216.742157,127.361824 213.475052,125.478928 
M41.583572,120.677391 
	C42.565861,120.793396 43.548119,121.010628 44.530441,121.010918 
	C100.290054,121.027405 156.049667,121.032631 211.809250,120.987091 
	C213.212509,120.985939 214.615295,120.405251 216.757538,120.033897 
	C221.973740,121.040634 224.363190,124.211357 224.281769,129.506485 
	C224.182541,135.959427 224.258179,142.415054 224.258179,149.112747 
	C227.281601,149.112747 229.783051,149.349350 232.223679,149.064621 
	C237.686142,148.427399 241.026291,145.183685 241.689255,140.381622 
	C242.339233,135.673676 243.537537,130.993271 243.696381,126.273895 
	C244.433929,104.362915 246.869858,82.405090 242.117767,60.600464 
	C241.220215,56.481995 239.363647,54.689480 235.054047,54.693848 
	C164.094574,54.765816 93.134987,54.770145 22.175552,54.684692 
	C17.631962,54.679222 15.264987,56.429562 14.910916,60.884018 
	C13.978256,72.617485 12.232589,84.363678 12.375013,96.085800 
	C12.555630,110.951149 14.124258,125.812256 15.508229,140.636551 
	C15.712601,142.825668 17.749117,145.766861 19.714993,146.671432 
	C23.517269,148.421036 27.873194,148.967438 32.743660,150.201004 
	C32.743660,142.189850 32.643440,135.723663 32.773075,129.262100 
	C32.892334,123.317467 34.858128,121.252716 41.583572,120.677391 
z"/>
<path fill="#192840" opacity="1.000000" stroke="none" 
	d="
M63.206448,200.157684 
	C61.468102,202.636398 60.249523,205.265503 58.203224,206.765244 
	C56.719585,207.852631 54.139301,207.443710 52.048019,207.702011 
	C52.177101,205.803375 51.547630,203.179855 52.557579,202.122971 
	C59.446434,194.913971 61.568466,185.949493 63.197224,176.592407 
	C63.478813,174.974655 65.987762,173.744583 67.467880,172.335449 
	C68.649574,173.824127 71.002663,175.475952 70.821739,176.774826 
	C69.697182,184.848114 69.098862,193.205505 63.206448,200.157684 
z"/>
<path fill="#19283F" opacity="1.000000" stroke="none" 
	d="
M200.713135,208.272369 
	C190.922226,199.826355 187.136581,188.816956 186.148773,176.675400 
	C186.039581,175.333344 187.899796,172.862366 189.196594,172.591736 
	C191.381897,172.135635 193.486328,173.023788 194.042465,176.163452 
	C195.049820,181.850403 196.115585,187.624710 198.124756,193.000870 
	C199.385818,196.375198 202.549652,199.001022 204.577438,202.144806 
	C205.375488,203.382034 206.184341,205.699188 205.597427,206.482712 
	C204.761551,207.598618 202.644226,207.754608 200.713135,208.272369 
z"/>
<path fill="#1A283F" opacity="1.000000" stroke="none" 
	d="
M86.126984,204.528824 
	C93.878349,196.479675 96.455368,186.983246 96.541611,176.463379 
	C96.552872,175.089706 98.125099,173.728821 98.974319,172.362015 
	C100.106964,173.931641 102.325752,175.606293 102.185860,177.052856 
	C101.551056,183.616959 100.591805,190.198090 99.060951,196.608719 
	C98.163521,200.366852 96.340248,204.060989 94.186325,207.284744 
	C93.322838,208.577118 90.387199,209.087601 88.524719,208.865234 
	C87.537811,208.747406 86.829437,206.296585 86.126984,204.528824 
z"/>
<path fill="#192840" opacity="1.000000" stroke="none" 
	d="
M165.915680,198.036026 
	C166.813644,199.140503 167.744751,199.774521 168.268829,200.651718 
	C169.687454,203.026108 173.055786,205.190399 169.865646,208.385147 
	C167.813965,210.439804 163.406677,209.196609 161.583694,205.807373 
	C159.879913,202.639694 158.309875,199.242081 157.555878,195.756424 
	C156.228851,189.621628 155.323135,183.362778 154.809128,177.109177 
	C154.687180,175.625259 156.814072,173.956482 157.906525,172.372742 
	C158.795761,173.934906 160.162155,175.404587 160.486176,177.076294 
	C161.524368,182.432800 162.021851,187.894516 163.072968,193.247894 
	C163.385345,194.838821 164.834747,196.206497 165.915680,198.036026 
z"/>
<path fill="#1D2A41" opacity="1.000000" stroke="none" 
	d="
M132.017258,179.299088 
	C132.017136,187.260818 132.071014,194.758484 131.989273,202.254639 
	C131.958466,205.078949 132.946411,209.029694 128.376877,208.986542 
	C124.152557,208.946686 125.040848,205.183762 125.014122,202.503769 
	C124.936050,194.674286 124.942978,186.843155 125.009781,179.013458 
	C125.032768,176.318344 124.168663,172.647598 128.413361,172.554550 
	C132.692627,172.460754 131.888031,176.100113 132.017258,179.299088 
z"/>
<path fill="#0B0B0B" opacity="1.000000" stroke="none" 
	d="
M238.553955,48.016159 
	C237.610962,48.410976 236.203903,48.982475 234.796494,48.983334 
	C163.713684,49.026657 92.630836,49.022648 21.547997,49.006847 
	C20.565435,49.006630 19.582922,48.791695 18.294224,48.391052 
	C18.813940,48.026745 19.639830,47.879662 20.465702,47.879757 
	C93.007050,47.888077 165.548401,47.907734 238.553955,48.016159 
z"/>
<path fill="#1C1C1C" opacity="1.000000" stroke="none" 
	d="
M24.451908,155.956329 
	C25.420179,155.550385 26.843864,155.027054 28.267859,155.026215 
	C95.309700,154.986130 162.351562,154.990021 229.393433,155.005112 
	C230.376770,155.005325 231.360062,155.209534 232.669189,155.574799 
	C232.175217,155.937988 231.355423,156.138626 230.535660,156.138519 
	C161.992935,156.129913 93.450195,156.105728 24.451908,155.956329 
z"/>
<path fill="#FDFDFD" opacity="1.000000" stroke="none" 
	d="
M40.980938,120.092339 
	C34.858128,121.252716 32.892334,123.317467 32.773075,129.262100 
	C32.643440,135.723663 32.743660,142.189850 32.743660,150.201004 
	C27.873194,148.967438 23.517269,148.421036 19.714993,146.671432 
	C17.749117,145.766861 15.712601,142.825668 15.508229,140.636551 
	C14.124258,125.812256 12.555630,110.951149 12.375013,96.085800 
	C12.232589,84.363678 13.978256,72.617485 14.910916,60.884018 
	C15.264987,56.429562 17.631962,54.679222 22.175552,54.684692 
	C93.134987,54.770145 164.094574,54.765816 235.054047,54.693848 
	C239.363647,54.689480 241.220215,56.481995 242.117767,60.600464 
	C246.869858,82.405090 244.433929,104.362915 243.696381,126.273895 
	C243.537537,130.993271 242.339233,135.673676 241.689255,140.381622 
	C241.026291,145.183685 237.686142,148.427399 232.223679,149.064621 
	C229.783051,149.349350 227.281601,149.112747 224.258179,149.112747 
	C224.258179,142.415054 224.182541,135.959427 224.281769,129.506485 
	C224.363190,124.211357 221.973740,121.040634 215.931259,119.932922 
	C214.110153,119.768295 213.115326,119.649109 212.120483,119.648949 
	C156.555740,119.639839 100.991005,119.637169 45.426270,119.659424 
	C43.944435,119.660019 42.462711,119.941727 40.980938,120.092339 
M78.361435,72.245079 
	C77.849083,73.788666 76.477333,76.171417 76.998825,76.705482 
	C78.174675,77.909683 80.284813,78.768311 82.019096,78.775826 
	C109.908638,78.896553 137.798843,78.861763 165.688904,78.861473 
	C169.341171,78.861435 173.015259,79.083931 176.634308,78.735992 
	C177.970169,78.607552 180.073151,77.251350 180.209839,76.237228 
	C180.372864,75.027771 178.800140,73.584343 177.062958,72.032127 
	C164.453918,72.023003 151.844788,71.981133 139.235840,72.012245 
	C119.168480,72.061760 99.101250,72.159920 78.361435,72.245079 
M213.455200,71.840614 
	C212.008759,73.211136 210.562317,74.581657 209.115875,75.952171 
	C210.426285,77.264252 211.663895,79.504997 213.068512,79.615105 
	C214.353821,79.715866 216.672241,77.681229 216.948669,76.275566 
	C217.189804,75.049202 215.219223,73.387917 213.455200,71.840614 
z"/>
<path fill="#FBFBFB" opacity="1.000000" stroke="none" 
	d="
M213.972031,126.164246 
	C216.742157,127.361824 217.678070,129.346970 217.511703,132.437881 
	C217.219330,137.870499 217.430008,143.330185 217.430008,149.008728 
	C158.052200,149.008728 99.166916,149.008728 39.593613,149.008728 
	C39.593613,142.550568 39.465698,136.127167 39.720901,129.719025 
	C39.762897,128.664383 41.486626,127.676712 43.193611,126.478699 
	C78.690941,126.305611 113.427803,126.331619 148.164642,126.311073 
	C170.100449,126.298103 192.036240,126.215569 213.972031,126.164246 
z"/>
<path fill="#030303" opacity="1.000000" stroke="none" 
	d="
M41.282257,120.384865 
	C42.462711,119.941727 43.944435,119.660019 45.426270,119.659424 
	C100.991005,119.637169 156.555740,119.639839 212.120483,119.648949 
	C213.115326,119.649109 214.110153,119.768295 215.561646,119.963394 
	C214.615295,120.405251 213.212509,120.985939 211.809250,120.987091 
	C156.049667,121.032631 100.290054,121.027405 44.530441,121.010918 
	C43.548119,121.010628 42.565861,120.793396 41.282257,120.384865 
z"/>
<path fill="#121212" opacity="1.000000" stroke="none" 
	d="
M213.723541,125.821587 
	C192.036240,126.215569 170.100449,126.298103 148.164642,126.311073 
	C113.427803,126.331619 78.690941,126.305611 43.490875,126.231796 
	C44.546295,125.770927 46.064552,125.035355 47.583611,125.033699 
	C101.578888,124.974609 155.574234,124.980766 209.569565,125.004921 
	C210.871460,125.005508 212.173233,125.314026 213.723541,125.821587 
z"/>
<path fill="#162641" opacity="1.000000" stroke="none" 
	d="
M177.979370,72.242264 
	C178.800140,73.584343 180.372864,75.027771 180.209839,76.237228 
	C180.073151,77.251350 177.970169,78.607552 176.634308,78.735992 
	C173.015259,79.083931 169.341171,78.861435 165.688904,78.861473 
	C137.798843,78.861763 109.908638,78.896553 82.019096,78.775826 
	C80.284813,78.768311 78.174675,77.909683 76.998825,76.705482 
	C76.477333,76.171417 77.849083,73.788666 79.026871,72.488564 
	C80.344063,72.825226 80.995781,72.999611 81.647575,72.999908 
	C112.496468,73.014038 143.345383,73.022202 174.194214,72.981209 
	C175.456253,72.979538 176.717651,72.499466 177.979370,72.242264 
z"/>
<path fill="#101010" opacity="1.000000" stroke="none" 
	d="
M177.521149,72.137199 
	C176.717651,72.499466 175.456253,72.979538 174.194214,72.981209 
	C143.345383,73.022202 112.496468,73.014038 81.647575,72.999908 
	C80.995781,72.999611 80.344063,72.825226 79.363136,72.484779 
	C99.101250,72.159920 119.168480,72.061760 139.235840,72.012245 
	C151.844788,71.981133 164.453918,72.023003 177.521149,72.137199 
z"/>
<path fill="#19273E" opacity="1.000000" stroke="none" 
	d="
M213.840515,71.879700 
	C215.219223,73.387917 217.189804,75.049202 216.948669,76.275566 
	C216.672241,77.681229 214.353821,79.715866 213.068512,79.615105 
	C211.663895,79.504997 210.426285,77.264252 209.115875,75.952171 
	C210.562317,74.581657 212.008759,73.211136 213.840515,71.879700 
z"/>
</svg>