<svg version="1.1" id="Layer_1" xmlns="http://www.w3.org/2000/svg" xmlns:xlink="http://www.w3.org/1999/xlink" x="0px" y="0px"
	 width="100%" viewBox="0 0 256 256" enable-background="new 0 0 256 256" xml:space="preserve">
<path fill="#001F3F" opacity="1.000000" stroke="none" 
	d="
M142.911865,92.861725 
	C148.803940,104.355354 153.559616,116.489159 162.296982,126.369049 
	C163.761536,128.025101 164.931717,128.337921 166.951416,127.947205 
	C172.982864,126.780373 177.875397,128.408142 180.579269,134.374039 
	C181.365128,136.107956 182.882599,136.430649 184.381836,137.179535 
	C187.154373,138.564499 191.460785,137.896255 192.160995,142.499451 
	C192.211151,142.829193 193.911880,142.960800 194.857971,143.092651 
	C200.799789,143.920731 206.598724,145.229340 212.373352,146.962769 
	C225.908798,151.025848 232.946655,160.324356 235.231186,173.797287 
	C235.840332,177.389771 235.260254,181.733002 237.121719,184.416840 
	C239.176743,187.379745 244.023956,185.219315 247.492844,186.445389 
	C250.653320,187.562454 255.736237,186.999619 255.891891,191.129684 
	C256.068939,195.828217 250.875778,195.635941 247.487549,196.280823 
	C238.910492,197.913315 230.255341,197.912079 221.692764,196.135483 
	C218.375809,195.447281 214.843918,194.747147 212.615326,191.064728 
	C216.541138,186.892349 221.779602,186.246826 226.752594,185.937500 
	C231.276352,185.656097 232.145340,183.513947 231.624771,179.845596 
	C228.857269,160.343887 222.852478,153.937653 204.064026,149.411880 
	C202.616562,149.063232 201.124084,148.901596 199.483307,148.624435 
	C198.485947,152.124237 196.942444,155.161789 192.723541,155.420380 
	C190.668869,155.546310 189.559662,154.670944 189.992249,150.963745 
	C188.290695,155.275757 185.779526,156.574768 182.829666,156.885681 
	C183.337585,162.032867 183.873230,166.808640 184.254791,171.596695 
	C184.452362,174.075867 184.617752,176.417923 185.680984,178.829010 
	C187.823029,183.686539 185.413086,190.092758 180.794540,193.212997 
	C176.086533,196.393631 171.046951,195.967804 166.845306,191.551971 
	C165.224045,189.848068 163.871277,189.737656 161.684143,189.899734 
	C144.269547,191.190338 126.848549,192.503418 109.405678,193.259979 
	C100.049568,193.665787 94.218422,184.684906 98.787888,177.528732 
	C101.380981,173.467743 105.727959,172.102402 110.401588,171.766098 
	C114.326668,171.483658 118.246994,171.135147 122.859482,170.759705 
	C118.133240,165.998947 111.250053,164.892075 108.785767,158.719772 
	C99.422493,159.270767 90.928749,163.761307 81.907745,166.413437 
	C73.971947,168.746536 66.033974,170.070038 56.968460,166.998428 
	C58.978783,169.625183 57.789860,170.731384 56.296665,171.991089 
	C45.781418,180.861923 34.126972,182.811935 21.354822,177.818619 
	C8.153925,172.657669 2.409070,162.351730 1.577265,148.733597 
	C1.496681,147.414291 1.288735,146.102783 1.069955,144.393829 
	C1.000000,144.000000 1.000000,143.500000 1.000000,143.250000 
	C3.269671,138.603729 4.397262,133.785019 6.936825,129.400833 
	C12.932045,119.050934 22.697004,115.385429 33.333035,115.045761 
	C57.284554,114.280838 68.812035,135.686630 65.836723,153.576218 
	C64.459320,161.858093 63.576370,162.318115 55.121254,160.527328 
	C63.224007,164.696991 70.487129,164.855896 78.477272,161.901947 
	C87.959892,158.396225 97.837440,155.912064 107.939453,153.708313 
	C103.599289,153.856537 103.101814,150.759491 103.143265,147.912598 
	C103.389458,131.003296 106.568695,114.716042 115.651428,100.217117 
	C119.716690,93.727669 125.705925,89.351456 134.144592,89.534691 
	C136.857361,89.593590 138.804718,91.074066 141.692184,92.016418 
	C142.483704,92.426964 142.704025,92.637817 142.911865,92.861725 
M32.743176,159.415741 
	C35.324921,159.020874 37.906666,158.626022 40.906715,158.167191 
	C38.665581,156.152847 36.989952,154.316727 33.991272,154.119904 
	C29.646147,153.834686 27.332861,151.261597 27.727089,146.822601 
	C28.042040,143.276276 30.429930,141.462692 33.788658,141.443420 
	C38.372871,141.417099 40.221386,144.343979 40.216175,148.578537 
	C40.212509,151.559875 41.428844,153.182739 44.373875,153.432297 
	C48.775707,145.663132 44.153355,137.174057 35.290844,136.315109 
	C29.247805,135.729431 23.921907,139.424652 22.567476,145.142853 
	C21.081795,151.415192 24.609934,156.670441 32.743176,159.415741 
M156.233917,164.266220 
	C157.947495,164.641388 159.263550,166.404205 161.363113,165.754471 
	C162.162491,163.115311 161.703613,160.449921 161.557724,157.830322 
	C161.378647,154.614716 159.940231,153.132004 156.315231,153.857986 
	C152.386169,154.644882 148.666855,156.425034 144.224075,156.196167 
	C148.295456,158.819489 152.543900,160.494629 156.233917,164.266220 
z"/>
<path fill="#001F3F" opacity="1.000000" stroke="none" 
	d="
M143.292282,92.996429 
	C142.704025,92.637817 142.483704,92.426964 142.070602,92.084663 
	C139.914749,88.673424 137.464203,85.597626 136.058777,82.101669 
	C132.750259,73.871826 136.076355,64.306274 143.332581,59.770164 
	C151.450424,54.695431 162.838531,55.477772 168.288574,62.895515 
	C172.246918,68.283005 177.371170,71.846245 182.142151,76.081337 
	C184.380478,78.068245 189.016327,79.798424 186.595825,83.790863 
	C184.513260,87.225922 180.343384,85.956650 176.946167,85.169075 
	C172.252396,84.080925 167.896149,82.067863 163.667801,79.754929 
	C163.291199,80.171501 162.914581,80.588074 162.537964,81.004654 
	C163.195648,81.147316 164.014557,81.087532 164.486557,81.463387 
	C170.406540,86.177628 169.750854,90.489662 162.565201,93.676826 
	C156.216095,96.492943 149.902649,95.673340 143.292282,92.996429 
z"/>
<path fill="#001F3F" opacity="1.000000" stroke="none" 
	d="
M17.271786,107.266991 
	C19.033646,105.740700 18.675169,103.985085 18.683687,102.364418 
	C18.726574,94.205093 18.641251,86.044556 18.748707,77.886398 
	C18.786539,75.014198 18.314531,73.168991 14.831231,72.939598 
	C10.844327,72.677055 8.161867,70.291351 8.376747,66.139984 
	C8.602753,61.773670 11.532880,59.744499 15.812315,59.740894 
	C27.801710,59.730797 39.791477,59.710602 51.780350,59.797424 
	C55.655785,59.825489 58.691212,61.396339 59.218246,65.652924 
	C59.746723,69.921234 57.361038,72.277184 53.381428,72.913216 
	C50.529938,73.368942 50.005783,75.061554 50.019299,77.484459 
	C50.067616,86.143150 50.063641,94.802216 50.053020,103.461105 
	C50.050060,105.874969 50.564548,107.381302 53.535820,107.801346 
	C60.805237,108.829010 63.149273,111.753685 63.111389,119.205750 
	C63.097713,121.895889 63.904701,124.770638 61.913830,128.010773 
	C54.706402,118.744339 45.624355,113.965607 34.232121,114.037811 
	C22.960321,114.109253 13.607688,118.392250 6.229277,126.971336 
	C0.678015,117.863144 5.898688,108.499733 17.271786,107.266991 
M49.312626,64.458466 
	C38.665943,64.447586 28.019224,64.420387 17.372614,64.443245 
	C15.757990,64.446709 13.603288,64.221184 13.603198,66.577667 
	C13.603125,68.509743 15.494119,68.729630 17.008982,68.597664 
	C22.397734,68.128258 23.424557,71.239151 23.360620,75.732178 
	C23.232800,84.714462 23.491207,93.704262 23.253189,102.682030 
	C23.146799,106.695007 24.631363,108.001923 28.483526,107.755463 
	C32.460388,107.501022 36.484428,107.451988 40.453552,107.757889 
	C44.439674,108.065094 45.740044,106.506531 45.675823,102.648361 
	C45.518017,93.168015 45.656498,83.682922 45.650497,74.199760 
	C45.648460,70.975708 46.541130,68.605530 50.374599,68.627121 
	C52.008083,68.636314 54.292923,68.870262 54.320751,66.679276 
	C54.355030,63.980766 51.721283,64.857384 49.312626,64.458466 
z"/>
<path fill="#001F3F" opacity="1.000000" stroke="none" 
	d="
M53.114189,192.593994 
	C52.932671,188.461472 51.135418,187.108566 47.329670,187.207672 
	C38.525574,187.436920 29.710257,187.350479 20.901646,187.231873 
	C17.578342,187.187134 14.998981,187.461441 14.916086,191.753616 
	C14.882651,193.484772 13.447218,194.762772 11.613039,195.005157 
	C9.709148,195.256760 7.944935,194.148880 7.808507,192.498932 
	C7.164319,184.708237 3.058774,177.276733 5.373940,168.265228 
	C13.535416,176.079926 22.417740,181.599091 33.550224,181.662216 
	C44.540871,181.724533 53.772598,177.308945 61.797337,168.441177 
	C63.805607,173.354568 63.809853,177.469727 62.316776,181.186890 
	C61.046467,184.349426 60.151337,187.369476 60.254913,190.749649 
	C60.309166,192.520172 59.611820,194.053207 57.876301,194.783615 
	C55.816933,195.650345 54.365334,194.708038 53.114189,192.593994 
z"/>
</svg>