<svg version="1.1" id="Layer_1" xmlns="http://www.w3.org/2000/svg" xmlns:xlink="http://www.w3.org/1999/xlink" x="0px" y="0px"
	 width="100%" viewBox="0 0 256 256" enable-background="new 0 0 256 256" xml:space="preserve">
<path fill="#001F3F" opacity="1.000000" stroke="none" 
	d="
M248.407715,118.956833 
	C242.977692,119.056534 237.989944,119.056534 231.657837,119.056534 
	C236.658173,122.539284 241.055038,124.453636 243.450699,129.350281 
	C248.358063,139.380676 244.841202,147.508789 238.908447,155.227417 
	C232.404160,163.689651 228.019165,173.446579 221.639023,181.629028 
	C222.618378,184.248535 225.072342,184.354538 226.298203,185.906982 
	C228.694153,188.941299 229.760086,192.145203 228.716461,196.116730 
	C226.469131,204.669006 221.714020,212.319260 220.079575,221.100327 
	C218.904633,227.412628 219.032455,233.686554 219.683960,239.989456 
	C220.223816,245.212387 217.838318,247.391296 213.010559,245.534302 
	C204.029526,242.079742 195.006226,238.828812 186.425583,234.262741 
	C178.832596,230.222229 170.434616,227.697205 162.400024,224.483124 
	C153.520508,220.931061 153.171936,218.917923 160.341446,212.913574 
	C160.835358,212.499924 161.226105,211.963089 161.891464,211.235840 
	C160.012772,209.754745 157.989548,210.343704 156.177933,210.340988 
	C124.515633,210.293335 92.853249,210.313583 61.190903,210.297195 
	C46.207916,210.289444 41.307228,205.655075 39.735668,190.761780 
	C37.187077,166.609390 34.385666,142.483749 31.813740,118.333725 
	C31.392094,114.374527 30.219236,112.384071 25.661388,112.769485 
	C20.036282,113.245148 14.339624,112.887413 8.673971,112.866508 
	C4.574021,112.851372 2.564447,110.857483 2.665711,106.667976 
	C2.766346,102.504517 2.652789,98.336342 2.700741,94.171013 
	C2.742707,90.525635 4.558181,88.671097 8.300443,88.702858 
	C13.299158,88.745285 18.306194,88.506828 23.295630,88.718941 
	C27.193117,88.884628 28.372234,87.142815 27.895365,83.595703 
	C27.695854,82.111671 27.664814,80.605690 27.530285,79.112106 
	C27.191784,75.353973 26.626812,72.510712 21.680162,71.488266 
	C15.204223,70.149727 13.034760,66.206375 12.860139,59.321522 
	C12.484065,44.493904 15.928801,40.634533 30.765402,41.042141 
	C37.929970,41.238972 43.439922,37.468567 48.651970,34.204029 
	C59.979050,27.109379 72.030350,26.261774 84.618355,27.100386 
	C88.867264,27.383448 90.751534,26.200703 91.240921,21.491140 
	C92.371643,10.610019 96.831718,7.331737 107.807480,7.506514 
	C120.136223,7.702836 132.469955,7.566765 144.801285,7.625423 
	C154.521011,7.671659 158.933731,11.753203 159.359360,21.316294 
	C159.526642,25.074474 160.613220,27.672972 164.887024,27.037462 
	C181.428879,24.577700 195.995956,29.945229 209.814880,38.248188 
	C213.552902,40.494141 217.499451,40.989929 221.766220,40.966045 
	C232.413452,40.906445 236.239380,44.849304 236.258163,55.407749 
	C236.261719,57.407318 236.354736,59.415379 236.207916,61.404869 
	C235.827072,66.565361 233.330170,70.529015 228.249771,71.701714 
	C224.650528,72.532509 223.822159,74.616287 223.501221,77.591179 
	C223.197601,80.405518 222.892548,83.219704 222.590378,86.034195 
	C222.476669,87.093498 222.595871,88.115555 223.776810,88.462944 
	C225.020523,88.828804 226.333267,88.543869 226.611511,87.183372 
	C227.727997,81.724503 231.904434,82.005280 235.961472,82.006638 
	C239.460602,82.007812 242.961349,81.988838 246.458420,82.085785 
	C250.194092,82.189354 252.356781,83.897995 252.330078,87.932297 
	C252.273819,96.430679 252.299194,104.929810 252.332565,113.428467 
	C252.342789,116.031517 251.443237,117.965950 248.407715,118.956833 
M65.401855,180.957138 
	C65.821541,184.096146 68.253662,183.723740 70.372841,183.724442 
	C105.505669,183.736298 140.638504,183.726593 175.771347,183.711838 
	C177.253647,183.711212 179.051559,183.996994 179.834976,182.432877 
	C182.887726,176.337967 188.099380,171.160904 187.666550,163.552750 
	C187.526825,161.096558 188.220596,158.604614 188.341476,156.119720 
	C188.699814,148.753632 190.440399,141.467529 190.042557,133.915482 
	C185.665924,134.262146 181.791595,134.997971 177.726959,134.623688 
	C168.615402,133.784698 160.510544,129.708481 151.958374,127.133461 
	C145.029877,125.047325 138.107437,129.147659 138.100876,136.203369 
	C138.093292,144.362167 138.057510,152.521179 138.107788,160.679657 
	C138.135330,165.146896 136.352051,167.567032 131.556168,167.362427 
	C127.567230,167.192245 123.564514,167.376694 119.569412,167.311264 
	C114.189468,167.223190 112.906509,165.933533 112.829071,160.386658 
	C112.745407,154.393494 112.876442,148.396805 112.754044,142.404907 
	C112.697525,139.637909 113.411003,136.768875 111.798454,133.460892 
	C98.060989,137.990326 85.905159,130.952271 73.303764,127.392380 
	C64.910339,125.021248 59.443020,128.465530 60.444519,136.981461 
	C62.134163,151.348755 63.702694,165.730286 65.401855,180.957138 
M115.500168,35.345428 
	C100.503433,35.347099 85.506104,35.421360 70.510368,35.299816 
	C66.723404,35.269123 63.472660,36.244106 60.060497,37.893089 
	C49.129654,43.175591 39.031818,51.151051 25.708979,49.367088 
	C24.512079,49.206825 23.140892,49.675381 22.837475,50.912601 
	C21.918716,54.658978 21.540543,58.643673 22.913223,62.192760 
	C23.993967,64.987038 27.294056,63.962776 29.673933,63.964447 
	C93.159966,64.009094 156.646027,64.000420 220.132095,63.998772 
	C221.298309,63.998741 222.464569,63.960846 223.630753,63.963806 
	C226.495712,63.971088 227.948593,62.570515 227.947906,59.686798 
	C227.947510,58.020676 227.868179,56.347542 227.990448,54.689812 
	C228.295883,50.549118 226.357239,48.735504 222.338684,49.286289 
	C215.518066,50.221134 209.628403,47.570805 203.804077,44.658504 
	C199.334183,42.423454 194.863480,40.178329 190.500107,37.745815 
	C187.344498,35.986607 184.104355,35.281528 180.485947,35.298206 
	C159.157745,35.396492 137.828842,35.346058 115.500168,35.345428 
M77.500053,72.313560 
	C72.837135,72.310432 68.174210,72.308792 63.511292,72.303848 
	C53.168842,72.292900 53.265419,72.281738 54.367146,82.425888 
	C54.853645,86.905289 56.350887,89.486450 61.513218,88.808182 
	C64.158661,88.460602 67.315224,87.931313 69.089951,91.113144 
	C71.845909,96.054192 74.734810,100.927322 77.310043,105.960892 
	C79.294807,109.840324 77.577156,112.388000 73.153580,112.528694 
	C69.828094,112.634453 66.492516,112.524574 63.173874,112.720970 
	C57.992924,113.027580 57.322773,114.305214 59.605877,119.492157 
	C70.482979,117.426155 80.904236,119.139847 91.158974,123.470497 
	C96.365273,125.669159 102.067581,126.164803 107.821129,124.748993 
	C111.223434,123.911758 112.896790,122.459709 112.850731,118.665298 
	C112.682976,104.845161 112.705513,91.020660 112.859222,77.200066 
	C112.899811,73.550308 111.712776,72.181740 107.975159,72.254082 
	C98.153404,72.444199 88.325493,72.315926 77.500053,72.313560 
M58.334324,188.797638 
	C55.226460,166.045197 52.927803,143.200882 50.697891,120.351662 
	C49.948841,112.676376 47.314987,110.980156 39.697933,114.265755 
	C40.551178,122.412682 41.215736,130.696686 42.321869,138.921280 
	C44.723724,156.780243 44.848553,174.913681 49.216297,192.548080 
	C51.210003,200.597519 52.201866,201.978760 60.392025,201.984329 
	C94.029678,202.007248 127.667358,201.996490 161.305023,201.992264 
	C171.128326,201.991043 171.128326,201.982117 174.798340,192.164291 
	C172.642166,192.164291 170.680542,192.164413 168.718918,192.164261 
	C134.748184,192.161819 100.777451,192.168716 66.806740,192.140305 
	C63.869198,192.137848 60.680737,192.689392 58.334324,188.797638 
M145.639221,72.313286 
	C138.092239,72.332710 138.085922,72.332710 138.083527,80.023956 
	C138.080597,89.503998 138.040146,98.984451 138.119385,108.463860 
	C138.148132,111.902664 137.647964,115.398506 138.648102,119.024597 
	C142.608841,118.829559 146.384964,118.377876 150.139145,118.517342 
	C156.749039,118.762894 156.992859,118.903748 156.716507,112.240997 
	C156.342728,103.228569 159.025589,96.125610 166.983475,91.032738 
	C171.830444,87.930786 176.888748,88.766907 181.921753,88.716423 
	C196.551025,88.569656 196.554031,88.667358 197.089264,73.977638 
	C197.100464,73.670662 196.903946,73.356117 196.570816,72.315964 
	C180.073288,72.315964 163.337357,72.315964 145.639221,72.313286 
M226.242279,158.822693 
	C229.216537,154.012543 232.414536,149.323746 235.106369,144.360413 
	C238.218536,138.622040 235.868713,131.546616 230.421722,129.058960 
	C224.279297,126.253700 217.313507,129.188995 215.144211,135.820435 
	C213.702072,140.229004 212.651581,144.785919 211.718216,149.336411 
	C209.873291,158.331131 208.177109,167.356415 205.511642,175.978500 
	C212.987076,179.846390 213.056137,179.891006 216.951721,173.860809 
	C220.016312,169.116959 222.883270,164.245392 226.242279,158.822693 
M129.754868,118.499947 
	C129.756775,104.837975 129.747040,91.175972 129.770218,77.514038 
	C129.774994,74.697388 129.844070,72.273590 125.754044,72.223877 
	C121.716019,72.174789 121.132202,74.145393 121.143280,77.481453 
	C121.226868,102.639229 121.229500,127.797386 121.182884,152.955292 
	C121.177185,156.031433 121.645920,158.053070 125.461845,158.046936 
	C129.228348,158.040863 129.812317,156.104187 129.787216,152.988174 
	C129.697296,141.826080 129.753082,130.662811 129.754868,118.499947 
M132.499390,27.091644 
	C136.993301,27.091648 141.488037,27.142910 145.980820,27.071804 
	C148.541840,27.031271 151.722107,27.727558 151.641022,23.483501 
	C151.570923,19.814529 151.240250,16.090605 146.345505,16.050650 
	C132.366394,15.936541 118.385361,15.924613 104.406212,16.026823 
	C99.870987,16.059984 99.368172,19.368843 99.260216,23.021084 
	C99.141159,27.049395 101.685997,27.080162 104.536163,27.072527 
	C113.523933,27.048447 122.511864,27.079729 132.499390,27.091644 
M216.449707,104.690590 
	C218.613861,104.686562 220.779160,104.637108 222.941879,104.690811 
	C225.278610,104.748840 226.788864,104.087204 226.762253,101.351395 
	C226.735443,98.594482 225.087479,98.033310 222.838470,98.037529 
	C206.690811,98.067833 190.542023,97.994362 174.396133,98.177544 
	C168.837234,98.240601 165.511200,101.808235 165.252518,107.358643 
	C165.097656,110.681030 165.351501,114.023560 165.170792,117.343376 
	C164.933777,121.697319 166.975464,123.318924 171.024612,123.051567 
	C172.117950,120.953484 171.690247,118.919258 171.712341,116.957611 
	C171.816986,107.662018 174.643372,104.747070 184.000320,104.689644 
	C194.487701,104.625275 204.975830,104.684227 216.449707,104.690590 
M189.197098,215.862198 
	C190.431610,213.351151 192.199661,211.557083 195.081970,213.195694 
	C197.841888,214.764694 197.371033,217.279037 196.231583,219.764877 
	C195.470184,221.425934 194.856506,223.154449 194.103806,224.819824 
	C192.676895,227.976944 194.073944,228.989273 197.145355,229.066406 
	C197.795776,225.796265 198.285309,222.694016 199.057922,219.663971 
	C199.623688,217.445114 201.333115,216.293076 203.602020,216.751114 
	C205.838654,217.202621 206.945770,218.886673 206.728302,221.152939 
	C206.522736,223.295166 206.174347,225.441193 205.672928,227.533829 
	C204.683670,231.662460 205.856430,234.205078 210.633148,234.716309 
	C210.944550,228.609009 211.272018,222.624802 212.750244,216.836990 
	C213.540405,213.743179 212.560684,212.309464 209.714630,211.245392 
	C201.779251,208.278534 193.839981,205.291519 186.072327,201.920609 
	C182.628067,200.425888 180.925491,201.289383 179.409698,204.389420 
	C178.173508,206.917648 176.359558,209.034607 174.172409,210.950806 
	C172.036575,212.822037 169.797272,214.861221 168.808334,217.652420 
	C170.607742,219.286972 171.790131,218.351868 173.036194,217.424103 
	C175.326294,215.718964 177.266357,213.709427 178.870560,211.339478 
	C180.423996,209.044540 182.561218,207.661789 185.208572,209.283417 
	C188.116104,211.064423 187.115326,213.493027 185.604660,215.740906 
	C184.135513,217.927078 182.625961,220.086090 181.137787,222.251724 
	C182.174316,223.711365 183.463348,224.220566 185.413269,224.060440 
	C186.540237,221.619629 187.714752,219.075851 189.197098,215.862198 
M219.668808,197.241821 
	C221.680252,193.466385 220.666367,191.117432 216.578720,189.617386 
	C209.246780,186.926819 202.013550,183.965546 194.757248,181.071838 
	C192.584610,180.205460 190.420120,179.617874 189.217239,182.273880 
	C187.878983,185.228867 186.154465,188.093719 185.742432,191.969025 
	C194.301239,194.600189 201.536545,199.757324 209.861130,202.656433 
	C217.007187,205.145111 216.958328,205.285416 219.668808,197.241821 
M211.136368,114.089546 
	C206.362381,110.838661 201.438339,112.512314 200.801270,117.889687 
	C198.849030,134.368118 197.078568,150.868607 195.353058,167.372604 
	C195.184723,168.982742 194.311493,171.042526 196.480118,172.308411 
	C198.658508,171.464493 198.451752,169.444519 198.819382,167.739441 
	C201.054123,157.374786 202.456940,146.735153 205.779358,136.732666 
	C208.184280,129.492416 211.266312,122.613937 211.136368,114.089546 
M62.812195,104.677353 
	C63.917465,104.543175 65.186295,104.984398 66.121140,103.613419 
	C65.491570,99.619637 63.244255,97.952698 58.988102,98.002464 
	C44.833633,98.167931 30.676023,98.049332 16.519777,98.092316 
	C14.113239,98.099617 11.145129,97.518974 11.110509,101.422943 
	C11.074645,105.467178 14.160552,104.649460 16.497362,104.657379 
	C31.652853,104.708710 46.808605,104.682968 62.812195,104.677353 
M236.329178,90.866608 
	C233.888351,95.736473 235.730148,100.933632 235.185074,105.950333 
	C234.844055,109.088730 235.778976,110.922935 239.495605,110.896889 
	C243.045303,110.872002 244.180206,109.327682 244.047592,106.058517 
	C243.920120,102.916618 244.045197,99.765259 244.014496,96.618484 
	C243.951828,90.192665 243.863693,90.126282 236.329178,90.866608 
M205.220291,76.685150 
	C204.942749,78.646507 204.554199,80.599663 204.408539,82.570763 
	C203.976303,88.419983 204.905960,89.157585 210.679550,88.754913 
	C213.538605,88.555511 214.309937,86.944130 214.578110,84.610962 
	C214.842239,82.312981 215.125595,80.014839 215.294281,77.708984 
	C215.438828,75.733261 216.814285,72.789551 213.539642,72.561668 
	C210.575531,72.355392 206.184860,70.216972 205.220291,76.685150 
M36.119663,81.624619 
	C36.608746,88.036011 40.079899,91.249092 43.985260,88.300552 
	C48.302200,85.041252 44.317471,80.063873 44.645069,75.860703 
	C44.811947,73.719696 43.762051,72.613564 41.474682,72.328896 
	C35.647583,71.603691 34.595478,73.153778 36.119663,81.624619 
M181.091919,118.489006 
	C181.217667,125.433731 182.665771,126.533936 188.788208,124.434563 
	C193.291061,122.890533 192.329300,118.824135 192.473724,115.662697 
	C192.636642,112.095871 189.353683,113.103493 187.256332,112.998657 
	C184.022491,112.837029 180.658752,112.763626 181.091919,118.489006 
M226.986816,115.117867 
	C225.998795,111.414429 223.223618,112.229706 221.056839,113.245789 
	C218.363556,114.508751 219.160233,116.897743 220.014999,119.253975 
	C222.893036,118.962685 225.544388,118.694336 228.375259,118.407814 
	C227.862900,117.230896 227.535385,116.478592 226.986816,115.117867 
z"/>
</svg>