<svg version="1.1" id="Layer_1" xmlns="http://www.w3.org/2000/svg" xmlns:xlink="http://www.w3.org/1999/xlink" x="0px" y="0px"
	 width="100%" viewBox="0 0 256 256" enable-background="new 0 0 256 256" xml:space="preserve">
<path fill="#001F3F" opacity="1.000000" stroke="none" 
	d="
M1.000000,143.468658 
	C31.214949,125.390045 61.407040,107.740562 91.679855,90.230659 
	C94.741325,88.459885 94.959183,86.046448 94.953842,83.104057 
	C94.911797,59.943588 94.912720,36.783009 94.931694,13.622488 
	C94.938660,5.119771 95.480461,4.598576 104.059052,4.592646 
	C119.888168,4.581704 135.717346,4.580621 151.546402,4.617876 
	C158.030350,4.633137 159.055511,5.644535 159.065002,12.192148 
	C159.099091,35.685818 159.177567,59.180317 158.993881,82.672585 
	C158.960815,86.900146 160.410339,89.258240 164.047729,91.351418 
	C191.478043,107.136330 218.754608,123.188400 246.181488,138.979340 
	C249.945267,141.146317 251.647079,143.536880 251.456955,148.034500 
	C251.084305,156.849808 251.357300,165.691925 251.339310,174.522873 
	C251.325867,181.116806 251.152054,181.312210 244.641388,181.314667 
	C213.149704,181.326569 181.658035,181.315216 150.166351,181.316376 
	C103.345383,181.318100 56.524410,181.313400 9.703469,181.351440 
	C6.821987,181.353790 4.042374,181.297775 1.349003,179.166092 
	C1.000000,167.312439 1.000000,155.624878 1.000000,143.468658 
M75.038719,110.599716 
	C58.458973,120.266167 41.879223,129.932617 25.299477,139.599075 
	C25.433693,139.884293 25.567909,140.169525 25.702126,140.454742 
	C93.473381,140.454742 161.244629,140.454742 230.222855,140.454742 
	C208.879776,128.011932 188.248428,116.743950 168.461792,104.148926 
	C157.496094,97.168808 146.415085,94.040710 133.686417,95.261337 
	C128.733429,95.736305 123.657539,95.741028 118.706070,95.258179 
	C106.984497,94.115143 96.344833,96.273407 86.833443,103.605774 
	C83.430885,106.228828 79.418678,108.061058 75.038719,110.599716 
M33.500011,150.232574 
	C27.335907,150.233475 21.169495,150.335480 15.008621,150.194855 
	C11.665424,150.118530 10.058808,151.216934 10.300415,154.799500 
	C10.524110,158.116470 10.348056,161.460297 10.350983,164.792297 
	C10.357381,172.074524 10.358145,172.073532 17.880243,172.073074 
	C66.307709,172.070084 114.735176,172.062546 163.162643,172.066971 
	C188.485779,172.069275 213.809402,172.021698 239.131531,172.188812 
	C242.664368,172.212128 243.943146,171.228592 243.703583,167.709793 
	C243.466507,164.227341 243.656876,160.716095 243.651062,157.217514 
	C243.639450,150.221085 243.637009,150.215561 236.418716,150.216080 
	C169.112473,150.220932 101.806229,150.227844 33.500011,150.232574 
M149.700317,20.649364 
	C149.678406,13.350974 149.678421,13.340137 142.343323,13.333855 
	C131.358002,13.324444 120.371544,13.420924 109.388031,13.280091 
	C105.941162,13.235894 104.214577,14.035774 104.238495,17.957787 
	C104.369415,39.428246 104.344864,60.900150 104.247925,82.370987 
	C104.232918,85.695602 105.530113,86.873909 108.704018,86.582291 
	C120.507820,85.497772 132.319443,86.501991 144.123199,86.652580 
	C148.439819,86.707649 149.854187,85.495483 149.801758,81.028297 
	C149.569260,61.224144 149.699692,41.415733 149.700317,20.649364 
z"/>
<path fill="#001F3F" opacity="1.000000" stroke="none" 
	d="
M99.395569,214.875549 
	C98.019951,218.644394 95.606071,221.208939 92.993301,223.499435 
	C89.160416,226.859589 88.230598,230.422714 91.087845,234.871780 
	C92.244675,236.673096 93.147995,238.682205 93.878296,240.701080 
	C94.789841,243.220947 94.797768,245.833710 91.924820,247.094467 
	C89.222824,248.280228 87.067657,247.126114 85.733337,244.553925 
	C84.434174,242.049484 83.155800,239.532120 81.950233,236.981689 
	C78.512199,229.708466 79.421646,224.287140 85.015556,218.350052 
	C92.125900,210.803497 92.117279,210.807663 87.588417,201.423386 
	C86.941986,200.083893 86.221436,198.727722 85.897453,197.297226 
	C85.400833,195.104462 86.380943,193.399628 88.353401,192.348221 
	C90.251747,191.336365 92.323257,191.761978 93.268021,193.372955 
	C97.073029,199.861084 102.186050,206.057404 99.395569,214.875549 
z"/>
<path fill="#001F3F" opacity="1.000000" stroke="none" 
	d="
M156.076599,198.396866 
	C155.351807,195.248657 155.906403,192.904526 158.900391,192.078171 
	C161.910629,191.247330 163.502426,193.318161 164.715088,195.628326 
	C165.948746,197.978470 167.088760,200.380188 168.202515,202.790390 
	C171.541580,210.016235 170.657776,215.144547 165.126999,220.917343 
	C157.866623,228.495453 157.870209,228.493713 162.538818,237.960449 
	C163.125198,239.149506 163.824188,240.321671 164.166168,241.584229 
	C164.790268,243.888351 164.254257,246.008392 161.963898,247.070892 
	C159.772705,248.087418 157.464432,247.666122 156.264664,245.510468 
	C150.331451,234.850037 144.643936,227.133667 157.199692,216.074173 
	C161.020889,212.708374 161.761612,209.014893 159.050507,204.593246 
	C157.928421,202.763168 157.150665,200.721985 156.076599,198.396866 
z"/>
<path fill="#001F3F" opacity="1.000000" stroke="none" 
	d="
M120.047188,242.785980 
	C118.845833,240.372177 117.824898,238.282486 116.780876,236.204391 
	C113.620323,229.913422 114.990860,224.299179 119.371742,219.174973 
	C120.448616,217.915375 121.621567,216.712845 122.884216,215.641891 
	C126.453125,212.614899 127.297874,209.314362 124.641151,205.157196 
	C123.223083,202.938248 122.248962,200.412811 121.253159,197.953339 
	C120.292099,195.579697 121.215607,193.685379 123.351540,192.478836 
	C125.653038,191.178772 127.495316,192.148422 129.018356,193.990433 
	C137.691452,204.479950 137.500366,214.111176 127.995972,223.556839 
	C124.343071,227.187149 123.390053,230.602783 126.312515,234.968109 
	C127.134827,236.196457 127.603325,237.659012 128.260040,239.001465 
	C129.644196,241.830841 130.869843,244.961487 127.412674,246.889069 
	C123.631256,248.997482 121.643219,246.259293 120.047188,242.785980 
z"/>
<path fill="#001F3F" opacity="1.000000" stroke="none" 
	d="
M108.223724,163.682648 
	C107.929581,167.397964 106.414398,169.621490 102.880135,169.178162 
	C99.589249,168.765366 98.892799,166.110001 98.878845,163.262131 
	C98.869133,161.279877 98.818161,159.279114 99.054466,157.319016 
	C99.364136,154.750427 100.821899,152.892212 103.539032,152.885818 
	C106.255569,152.879456 107.725182,154.752838 108.064285,157.295013 
	C108.324883,159.248657 108.195045,161.254364 108.223724,163.682648 
z"/>
<path fill="#001F3F" opacity="1.000000" stroke="none" 
	d="
M155.137573,158.367676 
	C155.142715,160.465988 155.167480,162.125015 155.106659,163.780884 
	C154.998230,166.732193 153.957611,169.152328 150.609116,169.232269 
	C146.933670,169.320038 145.938583,166.694901 145.782166,163.587097 
	C145.707245,162.098434 145.732178,160.603973 145.737152,159.112213 
	C145.747467,156.022186 146.618027,153.263321 150.114624,152.937164 
	C153.388824,152.631760 154.716049,154.983658 155.137573,158.367676 
z"/>
<path fill="#001F3F" opacity="1.000000" stroke="none" 
	d="
M131.460144,167.752319 
	C129.775986,164.063004 130.775940,160.545349 130.687546,157.097031 
	C130.623001,154.579697 132.136398,152.970856 134.676819,152.917908 
	C137.145782,152.866455 138.839401,154.352051 139.140213,156.767349 
	C139.446335,159.225525 139.450012,161.757217 139.265900,164.232895 
	C138.920670,168.875366 136.383682,170.098267 131.460144,167.752319 
z"/>
<path fill="#001F3F" opacity="1.000000" stroke="none" 
	d="
M122.107368,154.196106 
	C124.251350,158.283295 123.326935,162.272675 123.140022,166.166962 
	C123.054672,167.945206 121.618828,168.998871 119.757462,169.242508 
	C117.684128,169.513916 115.919037,168.700180 115.329842,166.845596 
	C114.165688,163.181183 113.990128,159.239975 115.328888,155.671265 
	C116.405167,152.802292 118.942757,151.947769 122.107368,154.196106 
z"/>
</svg>