<svg version="1.1" id="Layer_1" xmlns="http://www.w3.org/2000/svg" xmlns:xlink="http://www.w3.org/1999/xlink" x="0px" y="0px"
	 width="100%" viewBox="0 0 256 256" enable-background="new 0 0 256 256" xml:space="preserve">
<path fill="#001F3F" opacity="1.000000" stroke="none" 
	d="
M198.342316,179.710129 
	C200.037567,182.215958 201.572205,184.396988 203.002533,186.644394 
	C204.629211,189.200333 206.717285,192.006485 203.038849,194.384628 
	C199.627426,196.590103 197.922028,193.769058 196.305191,191.396744 
	C187.581161,178.596313 178.725403,165.881760 170.227478,152.932587 
	C165.292877,145.413193 160.573212,139.177689 150.542755,136.689575 
	C136.584885,133.227234 123.276833,127.025459 109.852394,121.596275 
	C105.030052,119.645981 102.390434,121.085594 100.103249,125.154526 
	C95.980804,132.488403 96.231888,135.055206 102.200768,140.675659 
	C110.204750,148.212433 118.184875,155.777969 126.334389,163.155350 
	C130.458481,166.888702 132.375168,171.306549 132.343307,176.817902 
	C132.263382,190.645721 132.356064,204.474472 132.295822,218.302505 
	C132.255524,227.555115 126.314415,234.115753 117.996971,234.282379 
	C109.460945,234.453400 103.013306,227.869781 102.873688,218.502686 
	C102.719749,208.175278 102.603615,197.837784 102.904671,187.517319 
	C103.048027,182.602951 101.811310,179.096252 97.652679,176.096939 
	C91.902794,171.949966 86.657387,167.103500 80.958588,162.358994 
	C77.985420,166.774292 77.309784,171.252655 76.364037,175.550491 
	C74.872513,182.328629 72.138504,188.405136 68.216774,194.149673 
	C60.330330,205.701706 52.875156,217.547318 45.061619,229.150284 
	C39.905441,236.807144 32.860371,238.757370 25.711481,234.913757 
	C17.222460,230.349609 14.856106,221.498718 20.266659,213.303589 
	C27.791183,201.906494 35.574142,190.680161 43.225475,179.366516 
	C44.509167,177.468384 46.019821,175.657349 46.445675,172.706375 
	C34.978748,168.846298 23.367619,164.771027 17.974762,152.745773 
	C12.538729,140.624222 16.697643,129.317413 22.317436,118.498657 
	C21.960932,116.793602 20.417868,116.585999 19.413155,115.803177 
	C15.949759,113.104637 14.479090,109.752647 15.356513,105.303810 
	C17.931026,92.250153 20.399996,79.175529 22.872131,66.101906 
	C23.661537,61.927216 25.367653,58.496235 29.709770,57.056915 
	C31.231150,56.552612 32.400482,55.785797 32.730965,54.086838 
	C32.824608,53.605442 32.989151,53.098648 33.259617,52.696644 
	C38.402180,45.052975 45.187965,49.430412 51.422134,50.335125 
	C56.219223,51.031292 59.615433,53.405796 59.033298,58.929310 
	C58.850117,60.667439 59.459415,61.720341 60.640507,62.811470 
	C63.707710,65.645050 64.740456,69.148712 63.855648,73.251190 
	C63.527443,74.772934 62.415619,76.935699 64.820038,77.400658 
	C67.155762,77.852333 67.006081,75.269974 67.438438,73.863487 
	C68.854729,69.256134 71.174881,65.339775 75.167320,62.534058 
	C84.564705,55.929966 96.565514,58.152954 103.259697,67.822067 
	C104.949249,70.262459 106.330139,72.916534 108.653183,76.815758 
	C108.653183,72.047806 108.569557,68.652382 108.678406,65.263130 
	C108.773521,62.301430 106.351639,61.965759 104.529221,60.981934 
	C95.675606,56.202335 90.743767,48.721424 91.027908,38.737194 
	C91.323296,28.357721 96.729538,20.838310 106.419891,16.716454 
	C116.637558,12.370294 128.886688,15.925943 135.045212,25.439775 
	C137.140594,28.676788 139.328873,30.094681 143.107941,29.750984 
	C146.246902,29.465504 149.433533,29.687477 152.598816,29.712698 
	C155.221176,29.733593 157.303879,30.610247 157.357513,33.612530 
	C157.409027,36.495464 155.451752,37.803307 152.885559,38.005211 
	C149.735550,38.253044 146.558746,38.139297 143.396790,38.264660 
	C141.778290,38.328835 139.905136,38.217030 139.956924,40.710011 
	C148.452637,43.531094 149.156204,44.998898 146.520889,54.299603 
	C142.289764,69.232376 130.673645,78.848709 115.177406,80.293098 
	C113.910217,80.411209 112.505753,79.979393 110.979591,81.386024 
	C115.982513,89.930992 118.331429,100.094795 130.138412,103.699562 
	C140.747864,106.938713 150.732422,112.217064 161.008286,116.558846 
	C169.667847,120.217728 171.839890,124.317513 169.274185,133.393295 
	C168.481308,136.197937 169.913010,137.873993 171.171661,139.736328 
	C180.125916,152.985229 189.140335,166.193481 198.342316,179.710129 
M89.396172,131.165375 
	C90.689751,125.926659 92.542664,120.885742 96.424644,117.023964 
	C98.719559,114.741005 98.330437,112.944542 96.898682,110.476830 
	C93.556664,104.716682 90.475159,98.805298 87.293495,92.952248 
	C85.934830,90.452820 84.871437,87.761765 88.166710,86.105453 
	C91.216919,84.572311 93.125618,86.541016 94.569695,89.102226 
	C98.250603,95.630661 102.038834,102.099640 105.640984,108.670883 
	C107.004990,111.159157 108.856667,112.698738 111.520653,113.675896 
	C119.803802,116.714165 128.015625,119.946655 136.260223,123.090363 
	C142.949432,125.640999 149.649094,128.164200 156.337463,130.717010 
	C158.308716,131.469391 160.402191,132.120651 161.483643,129.648575 
	C162.608521,127.077187 160.942810,125.606972 158.763367,124.624031 
	C157.549225,124.076454 156.314285,123.574867 155.087555,123.055313 
	C142.973434,117.924553 130.900558,112.692413 118.716461,107.733528 
	C115.549698,106.444656 113.536942,104.510216 111.999992,101.539467 
	C107.179153,92.221336 102.316116,82.918060 97.173447,73.775513 
	C92.629364,65.697144 81.928505,64.892319 76.804504,71.987167 
	C75.290001,74.084198 74.792641,76.547722 74.285194,78.985062 
	C68.926582,104.723305 63.222908,130.398010 58.413586,156.238983 
	C55.814247,170.205505 51.723022,183.101059 42.746147,194.420273 
	C37.176430,201.443298 32.609188,209.271378 27.724504,216.823822 
	C24.928751,221.146469 25.460032,225.377609 28.749758,227.415878 
	C32.638725,229.825455 36.278862,228.716949 39.251011,224.195755 
	C44.374500,216.401962 49.303516,208.472504 54.648998,200.834320 
	C62.433144,189.711517 69.315689,178.259903 71.262703,164.484268 
	C71.609955,162.027390 72.366890,159.622467 73.014725,157.215103 
	C75.052757,149.641708 77.466347,148.914825 83.591438,154.096558 
	C89.567558,159.152267 95.096344,164.846527 101.523994,169.230515 
	C109.269081,174.513046 112.124596,180.980286 111.365669,190.277039 
	C110.568634,200.040512 111.177216,209.920944 111.224083,219.750015 
	C111.242317,223.574158 112.983170,226.249832 116.968758,226.649948 
	C121.197083,227.074417 123.407745,224.489441 124.376305,220.715759 
	C124.700691,219.451874 124.636993,218.071564 124.638748,216.744308 
	C124.655235,204.249374 124.553253,191.753311 124.697952,179.260040 
	C124.748405,174.903366 123.185204,171.638138 119.993484,168.762375 
	C110.959541,160.622742 102.275070,152.080246 93.008064,144.220993 
	C88.769745,140.626541 87.809135,136.863785 89.396172,131.165375 
M57.300598,122.890488 
	C57.593788,118.770203 59.609112,114.792564 58.900585,110.544197 
	C56.306992,110.439056 56.602730,112.093651 56.214451,113.269310 
	C54.110767,119.639000 50.972244,121.866058 44.310135,121.326401 
	C41.346565,121.086349 38.404724,120.406685 35.493855,119.746521 
	C33.490849,119.292259 31.842930,119.520340 30.676601,121.307899 
	C25.103075,129.850143 21.309166,139.135834 25.532467,149.051834 
	C29.602646,158.608292 38.918148,161.561859 48.767521,164.245285 
	C51.611942,150.351517 54.339470,137.028702 57.300598,122.890488 
M29.787573,74.188591 
	C27.867138,84.490746 26.009428,94.805260 23.983049,105.086533 
	C23.463432,107.722923 23.929647,109.204918 26.804569,109.689934 
	C32.050457,110.574951 37.274200,111.599197 42.490936,112.646301 
	C46.038193,113.358299 47.695423,111.854530 48.362270,108.418983 
	C50.644726,96.659904 53.032806,84.920822 55.467178,73.192093 
	C56.068516,70.294846 55.150772,68.770157 52.206470,68.268654 
	C46.795132,67.346939 41.402287,66.315269 36.006695,65.303001 
	C33.002319,64.739349 31.176149,65.711182 30.826389,68.954292 
	C30.666328,70.438416 30.274656,71.897552 29.787573,74.188591 
M124.634628,49.319580 
	C122.146919,49.930096 117.940384,47.643188 117.498222,51.602962 
	C116.779015,58.043842 117.304214,64.623672 117.304214,71.208092 
	C129.031113,69.897224 139.290436,59.026608 138.429810,49.320118 
	C134.180984,49.320118 129.886032,49.320118 124.634628,49.319580 
M119.471283,38.225693 
	C113.986870,38.199215 108.502319,38.188820 103.018120,38.138680 
	C100.682838,38.117332 99.226387,38.803593 99.295860,41.545807 
	C99.407410,45.948551 103.607986,51.361782 108.424927,52.763294 
	C108.515862,51.243866 108.641647,49.783173 108.684174,48.320057 
	C108.859528,42.286427 109.401222,41.713463 115.289574,41.663174 
	C119.278160,41.629108 123.268272,41.700268 127.255501,41.617939 
	C128.787079,41.586311 130.729416,42.125980 131.362839,39.276894 
	C127.898232,37.280289 124.049416,38.654396 119.471283,38.225693 
M107.251328,25.550093 
	C106.083267,26.556738 104.089142,26.853331 104.209076,29.265106 
	C111.778145,29.265106 119.282166,29.265106 127.053871,29.265106 
	C123.042618,23.042078 116.062149,21.684961 107.251328,25.550093 
M62.829296,93.643166 
	C63.305973,91.345230 64.579758,89.095329 63.484806,86.582878 
	C60.234440,88.034500 57.930237,96.923927 59.548859,101.517387 
	C62.814186,100.068916 61.655396,96.724663 62.829296,93.643166 
z"/>
<path fill="#001F3F" opacity="1.000000" stroke="none" 
	d="
M222.894135,220.201447 
	C224.283432,222.694901 225.602509,224.813065 226.667175,227.052185 
	C227.691269,229.205963 227.589294,231.346588 225.260757,232.661163 
	C223.195312,233.827194 221.087250,233.170425 220.012009,231.336044 
	C214.989685,222.767746 210.098022,214.119431 205.353714,205.394180 
	C204.240784,203.347397 205.410492,201.416519 207.449387,200.488693 
	C210.141586,199.263565 211.900787,200.877533 213.143723,203.019196 
	C216.387177,208.607910 219.529831,214.255127 222.894135,220.201447 
z"/>
<path fill="#001F3F" opacity="1.000000" stroke="none" 
	d="
M198.047119,207.085205 
	C203.471176,204.969620 205.368439,206.302628 204.766876,211.325897 
	C203.978607,217.908081 203.172287,224.488190 202.346558,231.065781 
	C202.006638,233.773453 200.958755,236.176147 197.764343,235.741440 
	C194.975861,235.361954 194.255936,233.169678 194.558838,230.477264 
	C195.426971,222.760559 195.746445,214.970627 198.047119,207.085205 
z"/>
<path fill="#FFFFFF" opacity="1.000000" stroke="none" 
	d="
M236.633713,203.091675 
	C235.937622,206.436661 233.934998,207.755463 231.091339,207.009674 
	C226.107864,205.702682 221.197281,204.108200 216.284836,202.544113 
	C214.070084,201.838928 213.074936,200.200089 213.591431,197.886887 
	C214.045883,195.851440 215.460266,194.452576 217.512024,194.819351 
	C223.566910,195.901703 229.447983,197.691956 235.039322,200.278900 
	C235.781357,200.622208 236.099380,201.881943 236.633713,203.091675 
z"/>
</svg>