<svg version="1.1" id="Layer_1" xmlns="http://www.w3.org/2000/svg" xmlns:xlink="http://www.w3.org/1999/xlink" x="0px" y="0px"
	 width="100%" viewBox="0 0 256 256" enable-background="new 0 0 256 256" xml:space="preserve">
<path fill="#001F3F" opacity="1.000000" stroke="none" 
	d="
M147.921692,25.742170 
	C150.206604,24.010952 152.454285,23.674570 154.849823,23.680050 
	C169.342087,23.713182 183.834656,23.651667 198.326660,23.722031 
	C205.636002,23.757519 208.257080,26.695318 208.397034,34.217594 
	C208.504120,39.972603 209.016571,45.750412 202.282700,48.588615 
	C201.062241,49.103016 201.054779,50.501934 201.050537,51.667850 
	C201.031754,56.831219 201.082138,61.994877 201.055283,67.158165 
	C201.042068,69.699753 202.324539,70.451370 204.748322,70.740402 
	C216.835159,72.181725 222.876846,78.195190 224.230240,90.252991 
	C224.548996,93.092827 225.734070,94.021889 228.329254,93.955292 
	C230.325623,93.904060 232.329987,93.925430 234.323105,94.044113 
	C237.285034,94.220482 239.724945,95.423515 239.712051,98.721916 
	C239.699158,102.025162 237.311600,103.240959 234.287933,103.269592 
	C229.957443,103.310593 225.626251,103.270660 221.295380,103.281151 
	C217.164536,103.291161 215.380051,101.125572 215.070007,97.116844 
	C213.800186,80.698257 212.388733,79.634827 195.621033,79.833351 
	C179.465347,80.024635 163.304184,79.982834 147.148621,79.783524 
	C143.438599,79.737747 142.070419,80.733696 142.252670,84.526505 
	C142.516174,90.010834 142.372589,95.518143 142.300003,101.014297 
	C142.212845,107.613724 139.041168,110.947685 132.593704,111.135231 
	C128.266525,111.261101 123.928673,111.265846 119.602440,111.120789 
	C113.047188,110.901009 109.841660,107.642403 109.714905,101.129616 
	C109.614441,95.967522 109.439629,90.787498 109.749916,85.642708 
	C110.013237,81.276596 108.438583,79.758186 104.071411,79.815948 
	C89.914795,80.003204 75.754074,79.902466 61.595039,79.869019 
	C57.767067,79.859978 53.938286,79.730103 50.111935,79.596680 
	C42.586342,79.334267 37.348190,84.037231 36.935398,91.475586 
	C36.275684,103.363235 36.275677,103.366692 24.364885,103.321396 
	C21.866711,103.311890 19.361668,103.372803 16.872480,103.208733 
	C14.218268,103.033798 12.427174,101.536278 12.260285,98.845329 
	C12.086847,96.048775 13.989779,93.994354 16.484762,94.312508 
	C24.862497,95.380821 27.795555,91.818863 29.397062,83.668930 
	C30.952011,75.755913 37.936501,71.447639 46.074375,70.870995 
	C50.223930,70.576958 51.200855,68.965881 50.981667,65.346016 
	C50.800777,62.358643 50.902164,59.350605 50.959423,56.353271 
	C51.036007,52.344555 51.394485,48.463230 46.495373,46.446331 
	C44.336628,45.557598 43.608566,42.926670 43.630421,40.426311 
	C43.653717,37.761433 43.551075,35.093887 43.631809,32.431400 
	C43.789448,27.232550 46.784531,23.829033 51.945606,23.776714 
	C67.435593,23.619690 82.929207,23.626873 98.419304,23.781330 
	C103.813217,23.835114 106.996063,27.213474 107.213768,32.670639 
	C107.466011,38.993565 108.313225,45.644665 100.549957,48.744850 
	C99.344200,49.226360 99.369492,50.664150 99.365433,51.840488 
	C99.347610,57.004219 99.381317,62.168316 99.332260,67.331673 
	C99.310265,69.646385 100.380447,70.651154 102.660347,70.648819 
	C118.151863,70.632935 133.643402,70.639038 149.134933,70.655869 
	C151.701294,70.658653 152.675140,69.297958 152.662125,66.887871 
	C152.635162,61.890778 152.652985,56.893425 152.660477,51.896187 
	C152.662827,50.318527 152.201370,49.181980 150.757111,48.155212 
	C143.562500,43.040371 142.256348,33.382347 147.921692,25.742170 
M90.118324,52.356022 
	C90.446198,49.737385 89.651833,48.291401 86.651314,48.335587 
	C79.175377,48.445683 71.695061,48.448669 64.219666,48.316105 
	C61.061302,48.260098 60.212101,49.747215 60.283791,52.586460 
	C60.401199,57.236252 60.412930,61.893860 60.282066,66.542900 
	C60.199169,69.487984 61.278095,70.757843 64.331444,70.704742 
	C71.474556,70.580498 78.623688,70.559853 85.765610,70.715828 
	C89.148758,70.789711 90.109039,69.162331 90.065117,66.159195 
	C90.001938,61.840145 90.083473,57.518970 90.118324,52.356022 
M184.354568,70.674477 
	C191.680710,70.660210 191.683228,70.660210 191.688583,63.407646 
	C191.691269,59.755116 191.579681,56.098831 191.711914,52.451214 
	C191.819443,49.485138 190.663132,48.267403 187.634506,48.320053 
	C180.497635,48.444118 173.356201,48.421478 166.218460,48.323578 
	C163.305191,48.283619 161.926193,49.389069 161.954315,52.388195 
	C162.000992,57.367134 162.002472,62.351727 161.809250,67.325638 
	C161.700455,70.126175 163.107452,70.686401 165.464005,70.665466 
	C171.440262,70.612381 177.417450,70.663818 184.354568,70.674477 
M53.586906,39.171558 
	C66.861237,40.249603 80.158783,39.359592 93.442520,39.641586 
	C95.754616,39.690670 97.867798,39.557358 97.804710,36.356064 
	C97.742043,33.175381 95.544380,33.131145 93.295982,33.128014 
	C81.153908,33.111088 69.011635,33.144062 56.869831,33.080860 
	C52.724747,33.059288 51.378918,34.773205 53.586906,39.171558 
M173.500565,39.647175 
	C180.973557,39.641487 188.446609,39.619503 195.919525,39.639519 
	C198.323563,39.645958 199.651917,38.738102 199.619919,36.122978 
	C199.589172,33.610809 198.089676,33.077431 196.034241,33.080223 
	C183.413269,33.097370 170.792282,33.117275 158.171310,33.129822 
	C155.964828,33.132015 154.227585,33.568520 154.200241,36.358692 
	C154.173294,39.109867 155.751175,39.671894 158.053329,39.650726 
	C162.868835,39.606449 167.685074,39.643227 173.500565,39.647175 
M131.908951,80.711861 
	C129.590271,79.574257 127.049225,79.739792 124.586975,79.522308 
	C120.543488,79.165131 118.274429,80.546005 118.911781,85.160255 
	C119.250000,87.608887 118.982269,90.143112 118.965500,92.638542 
	C118.900002,102.386742 119.831520,103.122345 129.680054,101.779243 
	C131.969131,101.467079 132.988876,100.441956 132.919891,98.268120 
	C132.741104,92.633064 133.494354,86.971344 131.908951,80.711861 
z"/>
<path fill="#001F3F" opacity="1.000000" stroke="none" 
	d="
M38.410862,225.913330 
	C30.809052,221.400253 27.619764,214.917343 27.654366,206.560760 
	C27.724754,189.561386 27.556183,172.560196 27.749697,155.562759 
	C27.797514,151.362564 26.359510,149.806107 22.273638,150.186356 
	C20.300262,150.370026 18.251371,150.299454 16.296326,149.979492 
	C13.938097,149.593552 12.308313,148.076569 12.302745,145.565186 
	C12.297211,143.068665 13.858824,141.264069 16.245060,141.154236 
	C21.724779,140.902008 27.256229,140.701523 32.703487,141.187866 
	C36.421757,141.519806 36.927986,144.889481 36.925373,148.091263 
	C36.911083,165.590881 36.905266,183.090515 36.910770,200.590134 
	C36.911610,203.255447 36.827297,205.934723 37.059895,208.583176 
	C37.584564,214.557281 41.450802,218.747559 47.338776,218.809204 
	C66.835587,219.013397 86.335831,218.868164 105.834457,218.940323 
	C109.475883,218.953796 109.710815,216.790649 109.702225,214.015244 
	C109.654770,198.682358 109.666306,183.349213 109.690598,168.016220 
	C109.704239,159.411606 112.435631,156.706879 121.043205,156.675095 
	C124.876404,156.660934 128.710648,156.620926 132.542740,156.687866 
	C139.175385,156.803726 142.250763,159.853943 142.281448,166.588348 
	C142.352066,182.087753 142.484619,197.590652 142.213684,213.085526 
	C142.131210,217.802933 143.747986,219.067001 148.235580,219.018234 
	C166.066452,218.824402 183.900787,218.979446 201.733627,218.929260 
	C211.201111,218.902618 215.045944,215.009964 215.066071,205.492569 
	C215.105545,186.826431 215.051010,168.160065 215.094147,149.493927 
	C215.111664,141.911301 216.204193,140.878708 223.831787,140.837952 
	C227.497314,140.818390 231.169281,140.773834 234.827209,140.959641 
	C237.642471,141.102615 239.722122,142.586761 239.695175,145.596863 
	C239.667984,148.636444 237.464813,149.829086 234.704666,150.154984 
	C234.539337,150.174500 234.371887,150.175232 234.206070,150.191422 
	C224.324341,151.155518 224.322693,151.155563 224.319763,161.052216 
	C224.315231,176.385254 224.357101,191.718460 224.296432,207.051270 
	C224.245880,219.826477 215.760101,228.279266 202.893250,228.287888 
	C151.727600,228.322159 100.561890,228.285583 49.396236,228.323853 
	C45.652447,228.326645 42.112675,227.731506 38.410862,225.913330 
M118.962509,190.500000 
	C118.964790,196.987823 118.973625,203.475632 118.967819,209.963455 
	C118.959007,219.810715 119.363274,220.101868 129.385590,218.947159 
	C131.872818,218.660599 132.958313,217.574142 132.957535,215.161057 
	C132.952637,200.023148 132.947296,184.885208 132.973557,169.747330 
	C132.978714,166.768051 131.345963,165.583786 128.615891,165.491898 
	C126.953873,165.435959 125.282448,165.531921 123.628197,165.398743 
	C120.208870,165.123489 118.825966,166.575882 118.910530,170.037811 
	C119.068924,176.521759 118.960205,183.012238 118.962509,190.500000 
z"/>
</svg>